<svg width="54" height="54" viewBox="0 0 54 54" xmlns="http://www.w3.org/2000/svg"><title>jifen</title><g fill="none" fill-rule="evenodd"><path d="M54 27c0 14.912-12.088 27-27 27S0 41.912 0 27C0 12.089 12.088 0 27 0s27 12.089 27 27" fill="#1797EC"/><path d="M26.77 43.22l7.019-16.77a.671.671 0 0 0-.593-1.022l-4.062.091a.673.673 0 0 1-.632-.95l5.6-12.275a.673.673 0 0 0-.632-.95l-10.003.009a.672.672 0 0 0-.656.58l-2.646 19.034a.673.673 0 0 0 .685.764l4.566-.103a.671.671 0 0 1 .691.71l-.593 10.493c-.039.697.887.985 1.257.388z" fill="#FFF"/></g></svg>