<svg width="160" height="120" viewBox="0 0 160 120" xmlns="http://www.w3.org/2000/svg"><title>tooltip</title><g fill="none" fill-rule="evenodd"><g fill="#636363"><rect width="160.498" height="110.46" rx="5"/><path d="M25.754 119.387c-.65.892-1.704.894-2.356 0l-8.351-11.437h19.059l-8.352 11.437z"/></g><path d="M20.76 18.801v.83h2.289v1.785c-.97.534-1.798.928-2.5 1.181l.337.745c.674-.281 1.39-.66 2.163-1.139v1.04h.87v-4.442h-3.16zm3.651 0v.83h2.135v1.644c-.885.478-1.643.816-2.29 1.04l.338.746c.603-.253 1.25-.59 1.952-1.012v1.265h.856V18.8h-2.991zm-1.868 8.126h2.065v.984h-2.065v-.984zm0 1.771h2.065v.999h-2.065v-.999zm0 1.814h5.35v-.815h-2.387v-.999h1.967v-.787h-1.967v-.984h1.938v-.787h-1.938v-1.027h2.261v-.815h-2.33a8.842 8.842 0 0 0-.31-.97l-.969.169c.127.239.239.506.351.801h-1.84l.211-.675-.814-.168a9.829 9.829 0 0 1-1.686 3.36l.281.913c.365-.421.689-.871.983-1.335v4.723h.9v-.604zm2.065-5.399v1.027h-2.065v-1.027h2.065zm-3.413-5.117l-.393.59a6.75 6.75 0 0 1 1.517.83l.379-.59a7.37 7.37 0 0 0-1.503-.83zm3.483.014l-.407.59c.505.183.983.45 1.46.788l.393-.59a8.417 8.417 0 0 0-1.446-.788zm8.16 1.49l-2.767.69a77.963 77.963 0 0 1-.085-3.853h-.969c0 1.504.028 2.868.099 4.091l-1.194.295.154.942 1.11-.267c.07.956.168 1.8.309 2.545.112.689.267 1.321.435 1.898-.59.73-1.222 1.321-1.924 1.743l.562.76c.59-.338 1.151-.83 1.7-1.449.126.338.266.647.42.928.464.844.913 1.28 1.335 1.28.575 0 1.01-1.013 1.32-3.01l-.8-.435c-.197 1.532-.436 2.306-.689 2.32-.168 0-.407-.352-.688-1.027a6.147 6.147 0 0 1-.28-.857c.73-1.069 1.403-2.432 2.021-4.105l-.772-.52c-.45 1.307-.955 2.446-1.545 3.416a12.206 12.206 0 0 1-.21-1.223 23.662 23.662 0 0 1-.253-2.503l2.85-.703-.14-.956zm-1.42-2.727l-.73.464c.562.647 1.012 1.223 1.349 1.743l.716-.492c-.309-.492-.758-1.068-1.334-1.715zm7.444 1.603v.97h5.786c-.337 1.28-.815 2.404-1.46 3.374a54.425 54.425 0 0 0-3.104-2.446l-.688.66a67.207 67.207 0 0 1 3.201 2.573c-1.025 1.21-2.373 2.095-4.03 2.629l.576.914c1.685-.59 3.09-1.56 4.199-2.882 1.053.956 1.98 1.884 2.766 2.812l.787-.788a38.439 38.439 0 0 0-2.963-2.826c.73-1.11 1.306-2.446 1.713-4.02h1.25v-.97h-3.567a19.655 19.655 0 0 0-.632-2.081l-1.025.169c.224.562.435 1.209.632 1.912h-3.441zm-3.244-1.842l-.688.66c1.01.788 1.797 1.52 2.373 2.208l.73-.717a17.77 17.77 0 0 0-2.415-2.151zm8.187 12.414h3.216l.239-1.012c-.365.028-.899.042-1.573.056-.688.014-1.362.028-2.022.028-1.082 0-1.994-.014-2.725-.028-.814-.028-1.446-.14-1.867-.338-.394-.182-.745-.478-1.082-.885a2.39 2.39 0 0 0-.337-.324v-5.258h-2.949v.928h2.008v4.274c-.576.253-1.236.97-1.98 2.151l.758.689c.773-1.293 1.32-1.94 1.658-1.94.168 0 .35.112.533.351.436.506.927.858 1.475 1.027.562.154 1.278.239 2.177.253.884.014 1.713.028 2.471.028zm7.162-8.365h3.427v1.87h-3.427v-1.87zm3.427 2.798v1.644h-5.07v.97h5.07v1.744h-5.673v.97h12.372v-.97h-5.66v-1.744h5.07v-.97h-5.07v-1.644h4.382v-6.552h-9.83v6.552h4.41zm1.04-.928v-1.87h3.384v1.87h-3.385zm3.384-2.798h-3.385v-1.898h3.385v1.898zm-4.424-1.898v1.898h-3.427v-1.898h3.427zm10.097 8.379a.86.86 0 0 0-.617.225c-.169.14-.24.351-.24.619 0 .239.071.435.24.59.168.14.365.225.617.225a.976.976 0 0 0 .225-.028c-.056.73-.45 1.335-1.18 1.813l.38.605c1.053-.576 1.587-1.476 1.587-2.685 0-.914-.337-1.364-1.012-1.364zm16.403-4.766h5.576v1.533h-5.576V23.37zm5.576 2.418v1.49h-5.576v-1.49h5.576zm0 2.376v1.603c0 .337-.183.506-.548.506-.463 0-.969-.028-1.503-.056l.253.928h1.573c.786-.029 1.18-.38 1.18-1.069v-7.592h-6.517c.338-.52.632-1.068.913-1.63h7.401v-.984h-6.98c.197-.492.366-.999.534-1.519l-1.025-.126c-.168.548-.38 1.096-.618 1.645h-4.185v.984h3.722c-.97 1.813-2.332 3.416-4.101 4.822l.66.857a17.675 17.675 0 0 0 2.71-2.713v7.353h.955v-3.009h5.576zm11.895-2.305h1.657v1.715H96.96v.913h3.062v2.756h.983v-2.756h2.387v-.913h-2.387v-1.715h2.092v-.914h-2.092v-1.308h-.983v1.308H98.73c.084-.324.168-.675.253-1.055l-.843-.154c-.21 1.124-.618 2.01-1.236 2.685l.59.717a5.69 5.69 0 0 0 .87-1.28zm.575-5.807a4.186 4.186 0 0 1-.463 1.238c-.309.506-.786.955-1.418 1.321l.59.773c.716-.478 1.263-1.026 1.629-1.617a6.487 6.487 0 0 0 .617-1.715h2.065c-.028 1.013-.084 1.645-.169 1.884-.098.24-.337.366-.73.38-.323-.014-.73-.042-1.208-.07l.239.843c.45.028.843.056 1.18.056.604 0 1.025-.197 1.278-.562.252-.38.379-1.518.379-3.43h-5.856v.9h1.867zm-6.628 5.075h1.278v1.842h-1.292c0-.112.014-.21.014-.323v-1.519zm-.056 2.7h1.334v3.177h.814v-3.177h1.306v1.954c0 .337-.154.52-.463.52-.225 0-.477-.028-.744-.056l.238.843h.8c.675 0 1.026-.337 1.026-.998v-8.435h-1.685c.309-.436.632-.97.94-1.589v-.703h-2.499c.112-.28.239-.59.351-.9l-.913-.21c-.547 1.462-1.236 2.643-2.078 3.543l.618.745c.042-.057.084-.099.14-.155v4.316c-.014 1.603-.295 2.938-.828 3.979l.688.632c.505-.928.828-2.094.955-3.486zm1.6-6.172h-1.825c.309-.45.618-.928.899-1.462h1.825c-.308.548-.603 1.04-.898 1.462zm1.854 5.314h-1.306v-1.842h1.306v1.842zm0-2.685h-1.306v-1.757h1.306v1.757zm-2.12-1.757v1.757h-1.278v-1.757h1.278zm14.352 1.321c.422.52.913 1.21 1.475 2.08l.548-.8a32.255 32.255 0 0 0-2.023-2.334v-.76h1.896v-.97h-1.896V18.31h-.997v2.756h-2.05v.97h1.994c-.45 1.771-1.208 3.36-2.275 4.737l.435 1.097a15.911 15.911 0 0 0 1.896-3.894v7.184h.997v-7.31zm8.553-5.483c-1.727.647-3.665.998-5.828 1.055v4.513c-.084 2.727-.716 4.864-1.868 6.41l.716.745c1.32-1.771 2.037-4.161 2.135-7.155v-.155h2.598v7.395h1.011v-7.395h2.093v-.97h-5.702v-2.53c1.966-.1 3.75-.437 5.35-1.013l-.505-.9zm4.48 1.392l.21 7.339h.871l.225-7.339h-1.306zm.646 8.365a.804.804 0 0 0-.604.239c-.168.155-.239.351-.239.59 0 .24.07.436.239.605a.86.86 0 0 0 .604.239c.239 0 .45-.084.618-.24a.816.816 0 0 0 .239-.604.806.806 0 0 0-.24-.59.835.835 0 0 0-.617-.239zM20.507 42.626v1.013h12.625v-1.013H20.507zm19.928-5.848v4.611h-2.626v-3.514h-1.026v3.514h-2.148v.984h5.884v4.246h1.011v-4.246h5.575v-.984H41.46v-1.94h4.255v-.97H41.46v-1.701h-1.025zm4.578 6.622c-1.545 3.585-4.747 5.384-9.606 5.384l.365.97c5-.014 8.398-1.968 10.168-5.862l-.927-.492zm-7.008-.394a13.514 13.514 0 0 1-3.02 3.248l.633.815a13.808 13.808 0 0 0 3.103-3.416l-.716-.647zm10.59-.38v1.013h12.624v-1.013H48.594zm19.927-5.848v4.611h-2.626v-3.514H64.87v3.514h-2.149v.984h5.884v4.246h1.011v-4.246h5.576v-.984h-5.646v-1.94h4.255v-.97h-4.255v-1.701h-1.025zM73.1 43.4c-1.545 3.585-4.747 5.384-9.606 5.384l.366.97c4.999-.014 8.398-1.968 10.167-5.862L73.1 43.4zm-7.008-.394a13.514 13.514 0 0 1-3.019 3.248l.632.815a13.808 13.808 0 0 0 3.104-3.416l-.717-.647zm18.23 1.35h1.656v1.715h-3.061v.914h3.061v2.755h.983v-2.755h2.388v-.914H86.96v-1.715h2.093v-.914H86.96v-1.308h-.983v1.308h-1.292c.084-.324.169-.675.253-1.055l-.843-.154c-.21 1.124-.618 2.01-1.235 2.685l.59.717a5.69 5.69 0 0 0 .87-1.28zm.575-5.807a4.186 4.186 0 0 1-.464 1.238c-.309.506-.786.956-1.418 1.321l.59.773c.716-.478 1.264-1.026 1.629-1.616a6.487 6.487 0 0 0 .618-1.716h2.064c-.028 1.013-.084 1.645-.168 1.884-.099.24-.337.366-.73.38-.324-.014-.73-.042-1.208-.07l.238.843c.45.028.843.056 1.18.056.604 0 1.025-.197 1.278-.562.253-.38.38-1.518.38-3.43h-5.857v.9h1.868zm-6.629 5.076h1.278v1.841h-1.292c0-.112.014-.21.014-.323v-1.518zm-.056 2.699h1.334V49.5h.815v-3.177h1.306v1.954c0 .337-.155.52-.464.52-.224 0-.477-.028-.744-.056l.239.843h.8c.674 0 1.025-.337 1.025-.998v-8.435h-1.685c.31-.436.632-.97.941-1.589v-.702h-2.5c.113-.282.24-.59.351-.9l-.912-.211c-.548 1.462-1.236 2.643-2.079 3.543l.618.745c.042-.056.084-.099.14-.155V45.2c-.013 1.603-.294 2.938-.828 3.979l.688.632c.506-.928.829-2.094.955-3.486zm1.601-6.172h-1.826c.31-.45.618-.928.9-1.462h1.825c-.31.548-.604 1.04-.899 1.462zm1.854 5.314H80.36v-1.841h1.306v1.841zm0-2.685H80.36v-1.757h1.306v1.757zm-2.12-1.757v1.757h-1.279v-1.757h1.278zm16.177 5.862c-1.404.534-3.033.942-4.915 1.251l.127.984c1.797-.323 3.384-.745 4.788-1.279v-.956zm-2.598-10.094c-.561 1.673-1.235 3.163-1.994 4.457-.126.182-.267.309-.421.365l.239.928c.786-.112 1.558-.253 2.33-.394-.73 1.322-1.347 2.264-1.853 2.826-.112.113-.267.211-.45.281l.268.928a22.994 22.994 0 0 0 4.213-1.04v-.914a22.284 22.284 0 0 1-3.034.858c.815-1.013 1.812-2.714 3.02-5.09l-.9-.351c-.266.548-.519 1.068-.772 1.575-.618.126-1.235.224-1.853.309.73-1.097 1.46-2.545 2.162-4.372l-.955-.366zm9.199 7.128h-5.786v5.61h.969v-.774h3.82v.773h.997v-5.61zm-4.817 3.866v-2.91h3.82v2.91h-3.82zm1.447-10.895c-.97 1.77-2.205 3.233-3.722 4.372l.59.83c1.39-1.07 2.598-2.49 3.609-4.26.899 1.743 2.092 3.134 3.581 4.203l.59-.858c-1.63-1.124-2.865-2.558-3.694-4.287h-.954zm-1.826 4.33v.941h4.522v-.941h-4.522zm9.269.674v7.803h1.01v-9.363a17.144 17.144 0 0 0 1.391-3.15l-.94-.45a15.99 15.99 0 0 1-3.315 5.92l.323 1.068a19.161 19.161 0 0 0 1.53-1.828zm9.044.506l-.9.296c.69 1.574 1.321 3.402 1.883 5.454l.885-.393a41.972 41.972 0 0 0-1.868-5.357zm-4.831-2.896h5.322a9.603 9.603 0 0 1-.8 1.969l.969.28c.35-.843.632-1.7.856-2.572v-.66h-5.982c.168-.493.337-1.013.477-1.561l-.955-.197a16.04 16.04 0 0 1-2.317 5.188l.87.534c.59-.9 1.11-1.884 1.56-2.98zm1.755 10.094c.773 0 1.166-.393 1.166-1.18v-7.733h-.983v7.48c0 .365-.183.548-.534.548-.534 0-1.11-.028-1.7-.07l.211.955h1.84zm-2.106-7.085c-.576 2.052-1.25 3.74-2.009 5.061l.941.337c.815-1.476 1.475-3.19 1.98-5.145l-.912-.253zm9.563-3.121v.872h3.989c-.183.309-.394.632-.618.956h-4.129v.9h3.427c-.997 1.18-2.261 2.277-3.792 3.317l.548.872c.87-.59 1.657-1.223 2.373-1.87v5.272h.969v-.605h6.348v.605h.969V43.09h-6.966c.267-.309.52-.632.772-.97h7.598v-.9h-6.98c.183-.309.365-.618.534-.955h5.631v-.872h-5.224c.14-.352.281-.717.408-1.097 1.769-.14 3.314-.351 4.648-.646l-.463-.802c-2.627.535-5.927.802-9.915.802l.295.843c1.6 0 3.09-.042 4.465-.126-.14.337-.28.689-.435 1.026h-4.452zm2.767 6.256h6.348v.886h-6.348v-.886zm6.348-.787h-6.348v-.942h6.348v.942zm-6.348 2.46h6.348v.956h-6.348v-.956zm11.628-5.145c-.618 0-1.222.45-1.812 1.377l.703.492c.407-.646.772-.97 1.109-.97.28 0 .716.197 1.334.605.604.408 1.124.618 1.559.618.604 0 1.208-.464 1.812-1.377l-.703-.506c-.42.646-.786.984-1.109.984-.267 0-.702-.211-1.306-.605-.618-.422-1.152-.618-1.587-.618z" fill="#FFF"/></g></svg>