<svg width="40" height="40" viewBox="0 0 40 40" xmlns="http://www.w3.org/2000/svg"><title>iconDraft@1x</title><defs><linearGradient x1="90.02%" y1="100%" x2="-196.792%" y2="-323.43%" id="a"><stop stop-color="#FFF" offset="0%"/><stop offset="100%"/></linearGradient></defs><g fill="none" fill-rule="evenodd"><path d="M29.35 32.2H10.2c-.85 0-1.55-.7-1.55-1.55V9c0-.85.7-1.55 1.55-1.55h19.15c.85 0 1.55.7 1.55 1.55v21.65c0 .85-.7 1.55-1.55 1.55z" fill="#FFF"/><path d="M15.026 19.031c2.482-3.391 7.498-4.617 8.255-2.957.23.487-.004 1.138-.811 2.122-.302.368-.62.714-1.206 1.323-2.596 2.699-3.23 3.682-2.284 5.246 1.367 2.214 3.824 1.354 6.106-.929l-1.272-1.272c-1.56 1.559-2.839 2.007-3.298 1.263-.26-.43.195-1.137 2.045-3.06.617-.642.96-1.014 1.3-1.43 1.205-1.468 1.662-2.736 1.052-4.022-1.503-3.294-8.182-1.662-11.34 2.654l1.453 1.062z" fill="#DFDFDF"/><path d="M26.306 32.2h3.044c.72 0 1.33-.501 1.502-1.17L28.65 26.6l-.7-.65-2.45-2.25-.85-.75-.05-.05c-.4-.35-.65-.2-.6.3l.1 1.2.3 3.3.1.95 1.806 3.55z" fill="url(#a)"/><g transform="translate(23.5 22.5)"><path d="M2.2.8L1.9.7 1.25.4 1 .3H.95C.55.1.35.3.55.7L.7 1l.3.65.1.3.55 1.8.338.638L2.6 3.8l.55-.55.3-.3L4 2.4l.65-.65-.65-.4L2.2.8z" fill="#3C3C3C"/><path d="M1.652.586L1.9.7l.3.1 1.8.55.754.3L4 2.4l-.55.55-.3.3-.55.55-.618.626-.608-1.442L1.1 1.95l-.1-.3-.128-.276a2.558 2.558 0 0 1 .78-.788z" fill="#F9E0BD"/><path d="M14.2 10.3l-3.6 3.6-8.65-9.5 2.8-2.75 9.45 8.65z" fill="#FF2935"/><circle fill="#F9E9CD" transform="rotate(-44.806 12.229 11.938)" cx="12.229" cy="11.938" r="2.55"/><circle fill="#D1A662" transform="rotate(-44.806 12.229 11.938)" cx="12.229" cy="11.938" r="1.3"/><path d="M1.355 2.96l.245.79.197.46a2.1 2.1 0 0 0 .16.184L4.76 1.66a2.217 2.217 0 0 0-.023-.022L4 1.35l-1.023-.317c-.402.05-.782.222-1.077.517a1.92 1.92 0 0 0-.545 1.41z" fill="#FF2935"/></g></g></svg>