<svg width="25" height="24" viewBox="0 0 25 24" xmlns="http://www.w3.org/2000/svg"><title>Backspace</title><path d="M7.236 4.514c.125-.118.258-.228.398-.329l.015-.012c.077-.064.153-.112.224-.145a3.662 3.662 0 0 1 1.9-.528h9.535A3.701 3.701 0 0 1 23 7.21v9.58a3.701 3.701 0 0 1-3.692 3.71H9.773a3.662 3.662 0 0 1-1.898-.527 1.004 1.004 0 0 1-.226-.146l-.015-.012c-.14-.1-.273-.21-.398-.33C5.646 18.164 0 13.37 0 12c0-1.369 5.646-6.163 7.236-7.486zm5.759 7.474l-2.774 2.774a.626.626 0 0 0 .884.884l2.774-2.774 2.773 2.774a.626.626 0 0 0 .884-.884l-2.774-2.774 2.884-2.883a.626.626 0 0 0-.884-.884l-2.883 2.884-2.883-2.884a.626.626 0 0 0-.884.884l2.883 2.883z" fill="#3B3B3B" fill-rule="evenodd"/></svg>