<svg width="15" height="18" viewBox="0 0 15 18" xmlns="http://www.w3.org/2000/svg"><title>symbol_ellipsis2@1x</title><g fill="#6FB906" fill-rule="evenodd"><path d="M7.504 8.248c.299 0 .552.104.76.312.208.208.312.464.312.768s-.104.56-.312.768a1.025 1.025 0 0 1-.752.312c-.293 0-.547-.107-.76-.32a1.047 1.047 0 0 1-.32-.768c0-.299.107-.552.32-.76.213-.208.464-.312.752-.312zM2.176 8.264c.299 0 .552.104.76.312.208.208.312.464.312.768s-.104.56-.312.768a1.025 1.025 0 0 1-.752.312c-.293 0-.547-.107-.76-.32a1.047 1.047 0 0 1-.32-.768c0-.299.107-.552.32-.76.213-.208.464-.312.752-.312zM12.912 8.264c.299 0 .552.104.76.312.208.208.312.464.312.768s-.104.56-.312.768a1.025 1.025 0 0 1-.752.312c-.293 0-.547-.107-.76-.32a1.047 1.047 0 0 1-.32-.768c0-.299.107-.552.32-.76.213-.208.464-.312.752-.312z"/></g></svg>