<svg width="20" height="18" viewBox="0 0 20 18" xmlns="http://www.w3.org/2000/svg"><title>heart_full</title><g fill="none" fill-rule="evenodd"><path d="M17.125.844a5.462 5.462 0 0 0-2.721-.758c-1.75-.017-3.32.796-4.366 2.089C9.009.862 7.453.018 5.701 0a5.469 5.469 0 0 0-2.732.704C1.217 1.691.021 3.609 0 5.83a6.034 6.034 0 0 0 .263 1.814c.026.127.059.255.097.383C1.67 12.513 9.893 18 9.893 18s8.476-5.428 9.745-9.913c.024-.084.046-.168.064-.251A5.913 5.913 0 0 0 20 6.029c.02-2.221-1.141-4.159-2.875-5.185z" fill="#F05023"/><path d="M9.868 15.015S3.867 11.93.36 8.028C1.67 12.513 9.893 18 9.893 18s8.476-5.428 9.745-9.913c-3.566 3.895-9.77 6.928-9.77 6.928z" fill="#CC2800"/><path d="M19.841 7.338a5.89 5.89 0 0 0-2.716-3.751 5.462 5.462 0 0 0-2.721-.758c-1.75-.017-3.32.796-4.366 2.088C9.009 3.604 7.453 2.76 5.701 2.742a5.479 5.479 0 0 0-2.732.704C1.576 4.231.537 5.605.158 7.251c.031.133.066.264.105.393.026.127.059.255.097.383 3.507 3.902 9.508 6.987 9.508 6.987s6.203-3.032 9.77-6.927c.024-.084.046-.168.064-.251.054-.162.1-.329.139-.498z" fill="#D73714"/></g></svg>