<svg width="60" height="60" viewBox="0 0 60 60" xmlns="http://www.w3.org/2000/svg"><title>iconBrain</title><g fill="none" fill-rule="evenodd"><path d="M55.8 29.818c-.32-7.938-6.595-14.32-14.472-14.78a15.307 15.307 0 0 0-9.968-3.683c-2.219 0-4.324.477-6.228 1.326a6.238 6.238 0 0 1-2.94.518 12.982 12.982 0 0 0-.801-.026c-6.328 0-11.759 3.83-14.131 9.3A12.268 12.268 0 0 0 1 33.177C1 39.955 6.478 45.45 13.235 45.45c1.224 0 3.128-.473 4.586-.876 1.156-.319 2.404-.062 3.3.737 2 1.782 4.633 2.866 7.52 2.866 1.787 0 4.801-.55 7.14-.96 1.548-.27 3.168-.118 4.568.6 1.925.99 4.48 1.235 6.775 1.265 6.237.085 11.762-4.895 11.874-11.15a11.341 11.341 0 0 0-3.198-8.114" fill="#D79AE2"/><path d="M7.262 22.467l-.003.006c-1.4.788-2.63 1.843-3.62 3.096-2.032 5.01 4.17 9.784 6.25 7.74 2.012-1.977-4.835-4.25-2.63-10.836l.003-.006zM32.842 47.72c1.007-.162 2.024-.344 2.938-.504 1.549-.27 3.17-.117 4.57.602 1.923.99 4.479 1.234 6.774 1.265 6.237.084 11.762-4.896 11.874-11.151a11.341 11.341 0 0 0-3.198-8.114c-.32-7.938-6.595-14.319-14.471-14.78a15.349 15.349 0 0 0-7.151-3.424c0 .014 4.842 3.156 1.219 4.004-3.685.68-6.138 4.714-6.138 7.183 0 .988.392 1.726 1.256 1.9 2.334.468 1.35-4.94 8.63-6.372.94-.184 1.878.112 2.706.596 3.48 2.033 7.773 5.714 6.36 11.294-1.083 4.272-4.797 3.957-5.395 7.229-.6 3.285 6 4.339 3.579 6.751-3.595 3.582-9.852-2.395-13.553 3.52z" fill="#BD72CC" opacity=".6"/><path d="M14.904 45.268c.967-.175 2.024-.447 2.915-.694a3.624 3.624 0 0 1 2.236.094c-.063-.21-.122-.427-.177-.654-.79-3.277.407-5.274 2.03-6.588.927-.75 2.095-1.126 3.286-1.156 5.894-.15 9.688-1.945 8.777-4.47-.911-2.526-6.81 1.333-9.172-.095-2.004-1.21-1.415-7.147-3.58-7.301a1.982 1.982 0 0 0-.142-.006c-2.035 0-2.327 3.307-1.075 7.96.3 1.108-.12 2.26-1.04 2.942-2.432 1.805-4.456 4.848-4.058 9.966z" fill="#BD72CC" opacity=".6"/></g></svg>