<svg width="48" height="16" viewBox="0 0 48 16" xmlns="http://www.w3.org/2000/svg"><title>iconClose</title><g fill="none" fill-rule="evenodd"><path d="M0 0h48v16H0z"/><g fill="#888"><path d="M19.02 4.94c-.417-.042-.646-.272-.688-.688.042-.417.271-.646.688-.688h3.062a121.64 121.64 0 0 0-1.625-2.124c-.208-.375-.146-.688.188-.938.416-.166.77-.104 1.062.188.625.791 1.229 1.541 1.812 2.25.167.166.208.374.125.624h2.312c.75-1 1.438-1.958 2.062-2.874.292-.333.646-.417 1.063-.25.416.208.52.52.312.937a47.608 47.608 0 0 1-1.687 2.187h3.187c.458.042.687.271.687.688 0 .416-.229.646-.687.687h-5.187c0 .917-.041 1.792-.125 2.625h6.124c.459.041.709.27.75.687-.041.417-.291.646-.75.688h-5.874c.917 2.458 2.937 4.02 6.062 4.686.416.209.562.563.437 1.063-.291.458-.687.583-1.187.375-3.208-1-5.27-2.604-6.187-4.812-.708 2.083-2.75 3.729-6.124 4.937-.541.208-.916.104-1.125-.313-.166-.458-.041-.812.375-1.062 3.5-1.083 5.416-2.708 5.75-4.874h-5.625c-.416-.042-.645-.271-.687-.688.042-.416.27-.646.687-.687h5.812c.083-.75.125-1.625.125-2.625H19.02zm18.185 1.686c-.417-.041-.646-.25-.688-.624.042-.417.27-.646.688-.688h4.749V3.877c.041-.458.27-.708.687-.75.458.042.688.292.688.75v1.437h1.624c.417.042.625.271.625.688 0 .375-.208.583-.625.624H43.33v5.375c.083 1.208-.563 1.854-1.938 1.937h-1.374c-.417-.042-.667-.208-.75-.5-.042-.417.125-.646.5-.687h1.124c.75 0 1.104-.334 1.063-1v-4c-1.167 1.75-2.708 3.312-4.624 4.687-.375.208-.75.167-1.125-.125-.209-.416-.146-.77.187-1.062 2-1.375 3.625-2.916 4.874-4.625h-4.061zm6.686 8.624c-.5-.041-.792-.27-.875-.687-.083-.417.104-.667.563-.75h1.562c.875.042 1.291-.292 1.25-1V2.877c0-.25-.125-.375-.375-.375h-6.874c-.417-.042-.646-.27-.688-.687.042-.417.271-.625.688-.625h7.811c.542.041.833.333.875.875v11.123c.083 1.25-.625 1.916-2.125 2-.666.041-1.27.062-1.812.062zm-9.124.25c-.416-.042-.645-.291-.687-.75V4.252c.042-.458.27-.708.687-.75.459.042.709.292.75.75v10.56c-.041.417-.291.646-.75.688zm2.687-12.06c-.416.25-.791.187-1.124-.188-.5-.583-1.021-1.146-1.563-1.687-.208-.417-.166-.75.125-1 .417-.25.792-.23 1.125.062a75.057 75.057 0 0 0 1.562 1.75c.25.375.209.73-.125 1.062zM.472 3.532l10.09 10.002a.761.761 0 0 0 1.07 0 .746.746 0 0 0 0-1.061L1.542 2.471a.761.761 0 0 0-1.07 0 .746.746 0 0 0 0 1.06z"/><path d="M10.562 2.47L.472 12.474a.746.746 0 0 0 0 1.06.761.761 0 0 0 1.07 0l10.09-10.001a.746.746 0 0 0 0-1.061.761.761 0 0 0-1.07 0z"/></g></g></svg>