<svg width="200" height="15" viewBox="0 0 200 15" xmlns="http://www.w3.org/2000/svg" xmlns:xlink="http://www.w3.org/1999/xlink"><title>progress_fill copy</title><defs><rect id="a" width="200" height="15" rx="7.5"/><linearGradient x1="99.439%" y1="49.912%" x2="36.608%" y2="49.912%" id="c"><stop stop-color="#1797EB" offset="0%"/><stop stop-color="#31A4ED" offset="14.13%"/><stop stop-color="#46B0EF" offset="30.4%"/><stop stop-color="#55B8F1" offset="48.42%"/><stop stop-color="#5EBDF2" offset="69.34%"/><stop stop-color="#61BEF2" offset="100%"/></linearGradient></defs><g fill="none" fill-rule="evenodd"><mask id="b" fill="#fff"><use xlink:href="#a"/></mask><use fill="#D8D8D8" xlink:href="#a"/><g mask="url(#b)"><rect fill="url(#c)" width="200" height="15" rx="7.5"/><path d="M187.329 0h5.166C196.64 0 200 3.366 200 7.5c0 4.142-3.367 7.5-7.505 7.5h-.397c-2.456-.413-3.425-1.941-3.425-3.287 0-2.07 1.49-3.063 1.49-5.63 0-3.809-3.642-3.643-3.642-5.548 0-.223.32-.4.808-.535z" opacity=".25" fill="#E5F8FF"/><g transform="translate(26 2)"><ellipse opacity=".3" fill="#E6F9FF" cx="169.797" cy="8.72" rx="1.49" ry="1.49"/><ellipse opacity=".5" fill="#E6F9FF" cx="148.612" cy="2.344" rx=".745" ry=".745"/><ellipse opacity=".3" fill="#E6F9FF" cx="158.956" cy="4.745" rx="2.317" ry="2.318"/><ellipse opacity=".5" fill="#1797EB" cx="153.163" cy="7.146" rx="1.241" ry="1.242"/><ellipse opacity=".3" fill="#E6F9FF" cx="167.314" cy="1.35" rx="1.076" ry="1.076"/><ellipse opacity=".5" fill="#1797EB" cx="141.495" cy="4.828" rx="1.821" ry="1.822"/><ellipse opacity=".3" fill="#E6F9FF" cx="128.006" cy="8.388" rx="1.821" ry="1.822"/><ellipse opacity=".3" fill="#E6F9FF" cx="96.89" cy="5.656" rx=".91" ry=".911"/><ellipse opacity=".2" fill="#E6F9FF" cx="69.582" cy="7.478" rx="1.821" ry="1.822"/><ellipse opacity=".3" fill="#E6F9FF" cx="61.058" cy="2.51" rx=".662" ry=".662"/><ellipse opacity=".3" fill="#1797EB" cx="86.132" cy="5.242" rx="1.241" ry="1.242"/><ellipse opacity=".3" fill="#1797EB" cx="77.195" cy="2.344" rx=".91" ry=".911"/><ellipse opacity=".2" fill="#E6F9FF" cx="29.582" cy="5.478" rx="1.821" ry="1.822"/><ellipse opacity=".3" fill="#E6F9FF" cx="21.058" cy="10.51" rx=".662" ry=".662"/><ellipse opacity=".3" fill="#E6F9FF" cx="1.058" cy="5.51" rx=".662" ry=".662"/><ellipse opacity=".3" fill="#1797EB" cx="51.132" cy="8.242" rx="1.241" ry="1.242"/><ellipse opacity=".3" fill="#1797EB" cx="42.195" cy="5.344" rx=".91" ry=".911"/><ellipse opacity=".3" fill="#1797EB" cx="12.195" cy="1.344" rx=".91" ry=".911"/><ellipse opacity=".3" fill="#1797EB" cx="116.42" cy="2.924" rx="1.324" ry="1.325"/></g><path d="M8.958 14.788C5.234 14.788 3 11.222 3 8.928c0-.764.331-1.783.993-1.783 1.903 0 1.159 3.397 6.786 3.397l178.442.005c5.627 0 4.883-3.397 6.786-3.397.662 0 .993 1.02.993 1.783 0 2.293-2.234 5.86-5.958 5.86L8.958 14.788z" opacity=".6" fill="#32A0E9"/></g></g></svg>