<svg id="Layer_1" xmlns="http://www.w3.org/2000/svg" width="24" height="24" viewBox="0 0 24 24"><style>.st0{fill:none}.st1{fill:#fff}</style><g id="XMLID_703_"><circle id="XMLID_708_" class="st0" cx="12" cy="12" r="12"/><g id="XMLID_704_"><g id="XMLID_705_"><path id="XMLID_707_" class="st1" d="M18.5 8.5h-3.2c-.4 0-.8-.3-1-.7-.1-.4-.5-.7-1-.7L8.6 7l3 8.1 3.6-3.1c.3-.2.7-.1.8.2.1.3.5.4.8.2l2.5-2.1c.7-.6.2-1.8-.8-1.8z"/><path id="XMLID_706_" class="st1" d="M11.8 19c-.6.2-1.2-.1-1.4-.6l-4-10.9c-.1-.5.2-1.1.7-1.3.6-.2 1.2.1 1.4.6l4 10.9c.1.5-.2 1.1-.7 1.3z"/></g></g></g></svg>