<svg width="24" height="24" viewBox="0 0 24 24" xmlns="http://www.w3.org/2000/svg"><title>keyboard-hide_Corner</title><path d="M2.4 0C1.08 0 0 1.07 0 2.376v11.881c0 1.307 1.08 2.377 2.4 2.377h19.2c1.32 0 2.4-1.07 2.4-2.377V2.377C24 1.068 22.92 0 21.6 0H2.4zm8.4 3.564h2.4v2.377h-2.4V3.564zm0 3.565h2.4v2.376h-2.4V7.129zM7.2 3.564h2.4v2.377H7.2V3.564zm0 3.565h2.4v2.376H7.2V7.129zM4.109 9.505a.502.502 0 0 1-.509-.504V7.129H6v2.376H4.109zM3.6 5.941V4.068c0-.278.221-.504.509-.504H6v2.377H3.6zm4.103 8.316a.5.5 0 0 1-.503-.504v-1.368a.5.5 0 0 1 .503-.504h8.594a.5.5 0 0 1 .503.504v1.368a.5.5 0 0 1-.503.504H7.703zM16.8 9.505h-2.4V7.129h2.4v2.376zm0-3.564h-2.4V3.564h2.4v2.377zM18 9.505V7.129h2.4v2.376H18zm0-3.564V3.564h1.891c.281 0 .509.22.509.504v1.873H18zm-1.908 13.77c.39-.387.258-.701-.283-.701H8.19c-.547 0-.676.312-.283.701l3.384 3.35c.39.387 1.023.39 1.416 0l3.384-3.35z" fill="#3B3B3B" fill-rule="evenodd"/></svg>