<svg width="160" height="120" viewBox="0 0 160 120" xmlns="http://www.w3.org/2000/svg"><title>tooltip_draft@1x</title><g fill="none" fill-rule="evenodd"><path d="M32.609 110h122.383a4.994 4.994 0 0 0 5.008-4.994V4.994C160 2.247 157.758 0 154.992 0H5.008A4.994 4.994 0 0 0 0 4.994v100.012C0 107.753 2.242 110 5.008 110h11.536l6.854 9.387c.652.894 1.706.892 2.356 0L32.61 110z" opacity=".8" fill="#3B3B3B"/><path d="M22.395 21.263v5.068H26.3v1.26h-5.684v.91H26.3v2.17h.98V28.5h5.698v-.91H27.28v-1.26h3.948v-5.068h-8.834zm7.882 4.2h-6.93v-1.288h6.93v1.288zm-6.93-2.128V22.13h6.93v1.204h-6.93zm-2.618-4.438v.91h3.206v1.092h1.008v-1.092h3.724v1.092h1.008v-1.092h3.206v-.91h-3.206v-1.064h-1.008v1.064h-3.724v-1.064h-1.008v1.064h-3.206zm14 .924c.602-.084 1.19-.168 1.75-.28v2.1h-1.904v.966h1.764a11.89 11.89 0 0 1-2.072 4.27l.434 1.106c.756-1.148 1.344-2.422 1.778-3.822v6.482h.966v-6.426c.364.56.798 1.288 1.302 2.184l.546-.84a28.04 28.04 0 0 0-1.848-2.212v-.742h1.694v-.966h-1.694v-2.324c.574-.14 1.12-.308 1.638-.49l-.35-.952c-1.218.476-2.618.812-4.2.994l.196.952zm5.698.98v2.618h5.432V20.8h-5.432zm4.48 1.862h-3.528v-1.106h3.528v1.106zm-3.43 3.486v2.702h3.234v-2.702h-3.234zm2.394 1.974h-1.554v-1.246h1.554v1.246zm-.882-10.43l-1.036.168c.224.35.42.742.602 1.162h-3.15v.896h7.602v-.896h-3.472c-.168-.49-.35-.938-.546-1.33zm2.492 12.922c.798 0 1.204-.434 1.204-1.302v-4.998h-7.14v6.272h.952v-5.404h5.236v3.934c0 .448-.182.672-.532.672l-.938-.042.224.868h.994zm3.332-10.234v.966h4.578c-1.036 2.478-2.716 4.508-5.068 6.076l.574.938c2.492-1.834 4.256-4.172 5.292-7.014h.098v5.46h-2.884v.966h2.884v2.87h1.036v-2.87h2.996v-.966h-2.996v-5.46h.112c.952 2.534 2.66 4.816 5.124 6.832l.686-.868c-2.408-1.75-4.088-3.738-5.026-5.964h4.564v-.966h-5.46v-2.534h-1.036v2.534h-5.474zm13.944-2.086v.826h2.282v1.778c-.966.532-1.792.924-2.492 1.176l.336.742a15.45 15.45 0 0 0 2.156-1.134v1.036h.868v-4.424h-3.15zm3.64 0v.826h2.128v1.638c-.882.476-1.638.812-2.282 1.036l.336.742a15.35 15.35 0 0 0 1.946-1.008v1.26h.854v-4.494h-2.982zm-1.862 8.092h2.058v.98h-2.058v-.98zm0 1.764h2.058v.994h-2.058v-.994zm0 1.806h5.334v-.812h-2.38v-.994h1.96v-.784h-1.96v-.98h1.932v-.784h-1.932V24.58h2.254v-.812h-2.324a8.799 8.799 0 0 0-.308-.966l-.966.168c.126.238.238.504.35.798H64.66l.21-.672-.812-.168a9.784 9.784 0 0 1-1.68 3.346l.28.91c.364-.42.686-.868.98-1.33v4.704h.896v-.602zm2.058-5.376v1.022h-2.058V24.58h2.058zm-3.402-5.096l-.392.588a6.73 6.73 0 0 1 1.512.826l.378-.588a7.35 7.35 0 0 0-1.498-.826zm3.472.014l-.406.588c.504.182.98.448 1.456.784l.392-.588a8.394 8.394 0 0 0-1.442-.784zm8.134 1.484l-2.758.686a77.555 77.555 0 0 1-.084-3.836h-.966c0 1.498.028 2.856.098 4.074l-1.19.294.154.938 1.106-.266c.07.952.168 1.792.308 2.534.112.686.266 1.316.434 1.89-.588.728-1.218 1.316-1.918 1.736l.56.756c.588-.336 1.148-.826 1.694-1.442.126.336.266.644.42.924.462.84.91 1.274 1.33 1.274.574 0 1.008-1.008 1.316-2.996l-.798-.434c-.196 1.526-.434 2.296-.686 2.31-.168 0-.406-.35-.686-1.022a6.117 6.117 0 0 1-.28-.854c.728-1.064 1.4-2.422 2.016-4.088l-.77-.518c-.448 1.302-.952 2.436-1.54 3.402-.084-.364-.154-.77-.21-1.218a23.54 23.54 0 0 1-.252-2.492l2.842-.7-.14-.952zm-1.414-2.716l-.728.462c.56.644 1.008 1.218 1.344 1.736l.714-.49c-.308-.49-.756-1.064-1.33-1.708zm7.42 1.596v.966h5.768c-.336 1.274-.812 2.394-1.456 3.36a54.248 54.248 0 0 0-3.094-2.436l-.686.658a66.985 66.985 0 0 1 3.192 2.562c-1.022 1.204-2.366 2.086-4.018 2.618l.574.91c1.68-.588 3.08-1.554 4.186-2.87 1.05.952 1.974 1.876 2.758 2.8l.784-.784a38.302 38.302 0 0 0-2.954-2.814c.728-1.106 1.302-2.436 1.708-4.004h1.246v-.966h-3.556a19.558 19.558 0 0 0-.63-2.072l-1.022.168c.224.56.434 1.204.63 1.904h-3.43zm-3.234-1.834l-.686.658c1.008.784 1.792 1.512 2.366 2.198l.728-.714a17.709 17.709 0 0 0-2.408-2.142zM85.73 30.39h3.206l.238-1.008a32.14 32.14 0 0 1-1.568.056c-.686.014-1.358.028-2.016.028-1.078 0-1.988-.014-2.716-.028-.812-.028-1.442-.14-1.862-.336-.392-.182-.742-.476-1.078-.882a2.381 2.381 0 0 0-.336-.322v-5.236h-2.94v.924h2.002v4.256c-.574.252-1.232.966-1.974 2.142l.756.686c.77-1.288 1.316-1.932 1.652-1.932.168 0 .35.112.532.35.434.504.924.854 1.47 1.022.56.154 1.274.238 2.17.252.882.014 1.708.028 2.464.028zm7.14-8.33h3.416v1.862H92.87V22.06zm3.416 2.786v1.638h-5.054v.966h5.054v1.736H90.63v.966h12.334v-.966h-5.642V27.45h5.054v-.966h-5.054v-1.638h4.368v-6.524h-9.8v6.524h4.396zm1.036-.924V22.06h3.374v1.862h-3.374zm3.374-2.786h-3.374v-1.89h3.374v1.89zm-4.41-1.89v1.89H92.87v-1.89h3.416zm10.066 8.344a.858.858 0 0 0-.616.224c-.168.14-.238.35-.238.616 0 .238.07.434.238.588.168.14.364.224.616.224a.974.974 0 0 0 .224-.028c-.056.728-.448 1.33-1.176 1.806l.378.602c1.05-.574 1.582-1.47 1.582-2.674 0-.91-.336-1.358-1.008-1.358zm-83.566 8.48a56.374 56.374 0 0 1-.518 2.828h-1.694v.966h1.484a38.722 38.722 0 0 1-1.148 3.99c.784.574 1.512 1.12 2.156 1.638a9.384 9.384 0 0 1-2.576 2.786l.686.84a10.668 10.668 0 0 0 2.674-2.982c.7.588 1.302 1.12 1.778 1.624l.686-.798a23.684 23.684 0 0 0-1.988-1.708c.784-1.638 1.246-3.57 1.372-5.782v-.574h-2.422c.168-.84.336-1.764.504-2.744l-.994-.084zm.728 8.568c-.462-.336-.966-.7-1.498-1.078.364-.98.714-2.212 1.05-3.696h1.638c-.126 1.792-.518 3.388-1.19 4.774zm2.66-2.534v.98h3.164v4.172c0 .476-.168.714-.49.714-.672 0-1.302-.014-1.876-.014l.266.952h2.016c.728 0 1.106-.448 1.106-1.344v-4.48h2.856v-.98H30.36v-1.456c.84-.84 1.61-1.75 2.282-2.716v-.98H26.58v.98h4.914c-.686.952-1.4 1.75-2.156 2.408v1.764h-3.164zM42.597 48.6c.56 0 .98-.182 1.246-.532.294-.42.49-1.582.602-3.5l-.952-.322c-.07 1.638-.196 2.618-.364 2.954-.14.266-.378.406-.714.406h-2.632c-.504 0-.756-.21-.756-.63V39.15h-1.008v8.036c0 .938.476 1.414 1.456 1.414h3.122zm-6.65-7.952c-.336 2.128-.854 4.088-1.582 5.866l.868.546c.728-1.736 1.288-3.808 1.68-6.216l-.966-.196zm9.016-.434l-.98.322c.868 1.708 1.666 3.682 2.394 5.908l.924-.42a44.116 44.116 0 0 0-2.338-5.81zm-5.04-3.934l-.84.518c1.26 1.316 2.24 2.534 2.968 3.626l.84-.574c-.686-1.022-1.68-2.212-2.968-3.57zm10.36 3.108v5.502h1.778v.546c0 .112-.014.252-.028.392h-3.43v.896h3.178a3.352 3.352 0 0 1-.294.476c-.392.42-1.078.77-2.058 1.05l.518.798c1.078-.308 1.862-.728 2.338-1.274.252-.294.434-.644.574-1.05h3.976v2.366h.994v-2.366h3.178v-.896h-3.178v-.938h1.666v-5.502h-9.212zm2.786 5.502h3.766v.938H53.04c.014-.126.028-.252.028-.392v-.546zm5.446-.784h-7.252v-.868h7.252v.868zm-7.252-1.596v-.784h7.252v.784h-7.252zm0-1.498v-.84h7.252v.84h-7.252zm-.56-2.996h1.078c.28.378.532.77.756 1.162l.84-.308a7.88 7.88 0 0 0-.588-.854h1.834v-.854H51.15c.112-.266.238-.546.35-.826l-.966-.21c-.378 1.064-.994 2.044-1.848 2.94l.84.518a9.173 9.173 0 0 0 1.176-1.568zm5.754-.042h1.064c.308.392.574.798.798 1.218l.84-.308a8.728 8.728 0 0 0-.616-.91h2.338v-.854h-3.99l.294-.756-.98-.21a7.273 7.273 0 0 1-1.512 2.618l.826.532c.35-.406.658-.854.938-1.33zm6.398-1.022v.994h6.216c-1.232 2.604-3.444 4.816-6.608 6.636l.658.882c2.128-1.274 3.85-2.73 5.166-4.368v7.994h1.036v-9.478c.322-.532.616-1.092.868-1.666h4.564v-.994h-11.9zm8.232 3.766l-.728.686c1.694 1.386 3.024 2.688 4.004 3.92l.77-.784c-1.092-1.274-2.436-2.548-4.046-3.822zm17.304-3.234h-4.83v10.962h.98v-.854h2.87v.854h.98V37.485zm-3.85 9.128v-8.148h2.87v8.148h-2.87zm-5.656-10.43c-.14.882-.308 1.75-.476 2.59H76.56v.98h1.638a38.018 38.018 0 0 1-1.148 4.004 76.863 76.863 0 0 1 2.394 1.778c-.728 1.022-1.652 1.904-2.8 2.646l.672.826a11.25 11.25 0 0 0 2.898-2.856 26.04 26.04 0 0 1 1.932 1.68l.686-.812a30.573 30.573 0 0 0-2.086-1.722c.938-1.666 1.47-3.64 1.61-5.936v-.588h-2.912c.154-.77.308-1.61.462-2.506l-1.022-.084zm1.078 8.526a73.895 73.895 0 0 0-1.792-1.246c.364-.98.728-2.226 1.064-3.71h2.17c-.154 1.862-.63 3.514-1.442 4.956zm10.906-5.684a17.99 17.99 0 0 1-.532 3.864l.854.238c.308-1.274.49-2.618.532-4.032l-.854-.07zm4.424-.938a11.82 11.82 0 0 1-1.75 1.946V36.35h-.966v5.194c-.028 3.164-.756 5.46-2.198 6.888l.742.658c1.036-1.064 1.75-2.534 2.128-4.41.504.546 1.148 1.33 1.904 2.338l.574-.868a32.825 32.825 0 0 0-2.324-2.436c.084-.672.126-1.4.14-2.17v-.476c.966-.728 1.736-1.484 2.324-2.24l-.574-.742zm1.75-1.624l-.854.392c.518.784 1.008 1.68 1.47 2.66l.84-.406a23.614 23.614 0 0 0-1.456-2.646zm4.242-.14a21.305 21.305 0 0 1-1.694 3.71h-3.794v.966h6.958v-.966h-2.128c.616-.98 1.162-2.1 1.638-3.374l-.98-.336zm-5.922 11.172v.98h7.882v-.98h-7.882zm.952-3.808v.966h5.964v-.966h-5.964zm19.208-1.54l-4.606.56v-1.162c1.736-.168 3.248-.448 4.55-.812l-.462-.798c-2.534.658-5.726.994-9.562.994l.294.854c1.484 0 2.87-.056 4.158-.154v1.204l-4.578.56.126.91 4.452-.546V45.1l-5.04.672.154.91 4.886-.658v1.274c0 .98.462 1.47 1.386 1.47h3.99c.574 0 .994-.112 1.26-.336.294-.238.49-.952.602-2.128l-.966-.308c-.056.868-.182 1.4-.364 1.582-.14.14-.378.224-.7.224h-3.5c-.462 0-.686-.238-.686-.714v-1.204l5.712-.77-.154-.91-5.558.756v-1.33l4.746-.574-.14-.91zm-9.002-3.766h1.008c.392.616.742 1.26 1.022 1.918l.938-.35a11.784 11.784 0 0 0-.896-1.568h2.128v-.896h-3.766c.14-.35.28-.728.406-1.12l-.966-.21a9.752 9.752 0 0 1-1.792 3.248l.882.546c.392-.476.728-1.008 1.036-1.568zm5.81-.056h1.134c.336.462.616.938.868 1.428l.896-.336a10.7 10.7 0 0 0-.7-1.092h2.366v-.896h-4.186c.126-.35.252-.728.378-1.12l-.98-.21a9.974 9.974 0 0 1-1.568 3.304l.854.532c.336-.49.658-1.022.938-1.61zm6.44 4.466v.98h5.922a7.537 7.537 0 0 1-.84 1.554c-.952 1.19-2.66 2.142-5.096 2.87l.546.854c2.436-.728 4.186-1.722 5.264-3.01.154-.21.308-.434.448-.658 2.156 1.288 3.85 2.52 5.11 3.668l.728-.714c-1.47-1.232-3.276-2.478-5.418-3.724.126-.266.238-.546.336-.84h5.152v-.98h-4.886c.154-.7.252-1.456.28-2.296v-4.242h-1.022v4.242A11.824 11.824 0 0 1 125 42.79h-6.23zm1.134-3.542l-.532.784c1.078.462 2.128 1.092 3.15 1.876l.546-.826c-.952-.728-2.016-1.33-3.164-1.834zm1.54-2.254l-.532.784c.924.392 1.82.924 2.702 1.624l.532-.812a14.307 14.307 0 0 0-2.702-1.596zm14.91 4.186c-1.064 0-2.044.644-2.954 1.946l.756.602c.742-1.036 1.47-1.554 2.198-1.554.434 0 .938.14 1.498.434.42.238.868.504 1.33.784.812.448 1.54.672 2.184.672.994 0 1.946-.672 2.842-1.988l-.742-.616c-.756 1.078-1.456 1.624-2.1 1.624-.532 0-1.19-.238-1.974-.686-.462-.28-.91-.532-1.33-.77-.616-.308-1.19-.448-1.708-.448z" fill="#FFF"/></g></svg>