<svg width="104" height="108" viewBox="0 0 104 108" xmlns="http://www.w3.org/2000/svg"><title>Group</title><g fill="none" fill-rule="evenodd"><path d="M75.682 9.562l-8.902 3.343c-.887.334-.88.856.019 1.162l8.924 3.031 3.281 8.79c.333.89.854.882 1.158-.019l2.98-8.823 8.77-2.98c.898-.305.906-.827.018-1.16l-8.75-3.287L80.162.681c-.304-.9-.825-.91-1.158-.018l-3.322 8.9zM14.037 75.316l-6.365 2.39c-.903.34-.895.87.018 1.18l6.39 2.171 2.34 6.27c.338.905.867.896 1.176-.019l2.125-6.291 6.272-2.13c.913-.31.921-.841.02-1.18l-6.252-2.349-2.165-6.408c-.309-.915-.838-.924-1.175-.02l-2.384 6.386z" fill="#85DDFF"/><path d="M95.617 38.775l-3.62 1.36c-.884.332-.876.851.018 1.155l3.63 1.233 1.328 3.556c.33.886.849.878 1.151-.018l1.204-3.564 3.553-1.207c.893-.304.902-.823.018-1.155l-3.545-1.332-1.23-3.641c-.302-.896-.82-.904-1.151-.018l-1.356 3.631zM8.314 33.382l-3.62 1.36c-.884.332-.876.852.018 1.155l3.63 1.233 1.328 3.557c.33.886.849.878 1.15-.018l1.205-3.564 3.553-1.208c.893-.303.902-.823.018-1.154L12.05 33.41l-1.23-3.64c-.301-.896-.82-.905-1.15-.018l-1.356 3.63z" opacity=".5" fill="#BBE7F6"/></g></svg>