<svg id="Layer_1" xmlns="http://www.w3.org/2000/svg" width="150" height="15" viewBox="0 0 150 15"><style>.st0{fill:#e7e7e7}.st1{fill:#dbdbdb}</style><g id="Practice_11_"><g id="progress_empty_9_"><path id="Mask_23_" class="st0" d="M7.5 0h135c4.1 0 7.5 3.4 7.5 7.5s-3.4 7.5-7.5 7.5H7.5C3.4 15 0 11.6 0 7.5S3.4 0 7.5 0z"/><path id="Mask-Copy-2_9_" class="st1" d="M143 15c3.9-.3 7-3.5 7-7.5 0-4.1-3.4-7.5-7.5-7.5H7.5C3.4 0 0 3.4 0 7.5c0 4 3.1 7.2 7 7.5-1-.9-1.8-1.9-2.3-2.9l-.8-1.6C2 6.9 3.8 4 7.8 4h134.5c4 0 5.8 2.9 3.9 6.5l-.8 1.6c-.6 1-1.4 2-2.4 2.9z"/></g></g></svg>