<svg xmlns="http://www.w3.org/2000/svg" width="20" height="18" viewBox="0 0 20 18"><path fill="#E0E0E0" d="M17.125.844a5.462 5.462 0 0 0-2.721-.758c-1.75-.017-3.32.796-4.366 2.089C9.009.862 7.453.018 5.701 0a5.469 5.469 0 0 0-2.732.704C1.217 1.691.021 3.609 0 5.83a6.034 6.034 0 0 0 .263 1.814c.026.127.059.255.097.383C1.67 12.513 9.893 18 9.893 18s8.476-5.428 9.745-9.913c.024-.084.046-.168.064-.251A5.913 5.913 0 0 0 20 6.029c.02-2.221-1.141-4.159-2.875-5.185z"/><path fill="#BDBDBD" d="M2.969 3.446a5.479 5.479 0 0 1 2.732-.704c1.753.017 3.308.861 4.337 2.175 1.046-1.293 2.616-2.106 4.366-2.088.992.01 1.917.285 2.721.758a5.882 5.882 0 0 1 2.716 3.751A5.93 5.93 0 0 0 20 6.029c.02-2.221-1.141-4.159-2.875-5.184a5.462 5.462 0 0 0-2.721-.758c-1.75-.017-3.32.796-4.366 2.088C9.009.862 7.453.018 5.701 0A5.457 5.457 0 0 0 2.97.704C1.217 1.691.021 3.609 0 5.83c-.004.491.052.966.158 1.421.379-1.646 1.418-3.02 2.811-3.805z"/></svg>