<svg width="170" height="180" viewBox="0 0 170 180" xmlns="http://www.w3.org/2000/svg" xmlns:xlink="http://www.w3.org/1999/xlink"><title>guide_draft@1x</title><defs><path id="a" d="M25.36 72.847c-10.15 0-15.37-2.982-21.922-13.027-3.883-5.955-5.092-14.68-.026-19.606.964-.938 2.492-1.338 2.492-1.338.605-.207 1.089-.89 1.08-1.537L6.68 16.29l-.03-1.436-.195-10.27c0-2.475 2.107-4.175 4.295-4.175 2.189 0 4.296 1.787 4.297 4.311l.31 9.897.107 2.979.518 11.084c.102.252.962-.741 1.099-1.214 1.019-3.067 4.102-2.767 7.514-1.923 1.835.454 2.524 2.943 2.524 2.943.225.59.704.65 1.106.163 0 0 .409-.825 1.274-.825 3.75 0 5.694 1.664 5.922 3.707.003.028.713 1.804 1.578 2.065.865.26.486-1.443 3.37-.894 2.334.403 3.87 3.294 3.87 4.735 0 6.274-.552 21.198-2.715 25.553-2.837 5.71-6.01 9.857-16.164 9.857z"/><path id="b" d="M4.712 39.335a7.154 7.154 0 0 1 1.192-.46c.393-.133.734-.468.923-.864L7 37.925v13.564s-1.154-2.366-1.73-6.35c-.228-1.572-.487-4.864-.558-5.804z"/><path id="c" d="M26.904 27.895v.506c0 3.207.115 6.678.923 6.735.808.058 1.961-3.548 1.961-6.52v-.79a12.33 12.33 0 0 0-.288-.002c-.865 0-1.274.825-1.274.825-.402.487-.88.427-1.106-.163 0 0-.068-.243-.216-.591z"/><path id="d" d="M26.904 27.895v.506c0 3.207.115 6.678.923 6.735.808.058 1.961-3.548 1.961-6.52v-.79a12.33 12.33 0 0 0-.288-.002c-.865 0-1.274.825-1.274.825-.402.487-.88.427-1.106-.163 0 0-.068-.243-.216-.591z"/><path id="e" d="M18.827 25.366v1.52c0 2.97-1.154 6.577-1.962 6.519-.807-.058-1.281-3.312-1.281-6.52v-5.463l.06.006.339 7.252c.102.252.962-.741 1.099-1.214.355-1.07.961-1.73 1.745-2.1z"/></defs><g fill="none" fill-rule="evenodd"><rect opacity=".9" fill="#3B3B3B" width="170" height="180" rx="10"/><path d="M48.866 134.688h3.68v2.448h-3.68v-2.448zm-.08 3.856h3.76v4.56h1.536v-4.56h3.968v2.384c0 .624-.272.944-.784.944-.544 0-1.12-.032-1.744-.08l.4 1.488h1.84c1.216 0 1.84-.608 1.84-1.808v-12.048H47.33v7.84c-.032 2.112-.528 3.856-1.488 5.232l1.168 1.04c.992-1.312 1.584-2.976 1.776-4.992zm9.264-1.408h-3.968v-2.448h3.968v2.448zm0-3.84h-3.968v-2.4h3.968v2.4zm-5.504-2.4v2.4h-3.68v-2.4h3.68zm9.456 4.48v1.504h14.48v-1.504h-14.48zm25.168 1.152c.528 2.944 2.096 5.28 4.72 7.008l.848-1.344c-1.088-.64-1.968-1.392-2.656-2.256a7.657 7.657 0 0 0 2.288-1.872l-.96-.976c-.64.768-1.328 1.344-2.048 1.76a8.351 8.351 0 0 1-.848-2.32h2.928v-7.12h-7.28v12.128c0 .256-.176.432-.496.56l.352 1.328c1.824-.464 3.344-.944 4.544-1.44l-.336-1.36c-.864.368-1.728.672-2.592.912v-5.008h1.536zm-9.008-4.64v1.456h1.968c-.496 1.856-1.28 3.504-2.352 4.944l.656 1.648a18.827 18.827 0 0 0 1.728-3.664v7.296h1.488v-7.936c.352.64.768 1.424 1.248 2.352l.88-1.328a43.586 43.586 0 0 0-2.128-2.576v-.736h1.792v-1.456H81.65v-2.976h-1.488v2.976h-2zm7.472 1.776h4.32v1.504h-4.32v-1.504zm4.32-1.312h-4.32v-1.568h4.32v1.568zm16.592-3.36c-3.104.704-6.944 1.072-11.504 1.072l.48 1.376c1.888 0 3.632-.064 5.264-.176v2.192h-5.408v1.472h5.408v2.272H94.05v1.456h6.736v2.912c0 .368-.224.56-.672.56-.736 0-1.504-.032-2.304-.08l.352 1.472h2.48c1.104 0 1.664-.528 1.664-1.584v-3.28h6.16V137.2h-6.16v-2.272h4.96v-1.472h-4.96v-2.32c1.888-.192 3.552-.48 4.992-.864l-.752-1.28zm11.04 3.248c1.952-.384 4.016-.976 6.192-1.76l-.832-1.2a30.128 30.128 0 0 1-5.36 1.632v-1.968h-1.472v4.368c0 1.088.512 1.632 1.536 1.632h4.624c.64 0 1.12-.128 1.44-.384.336-.256.576-1.072.704-2.432l-1.408-.448c-.064.912-.176 1.456-.336 1.632-.16.144-.384.224-.672.224h-3.888c-.352 0-.528-.192-.528-.544v-.752zm-5.456 11.264c1.008 0 1.52-.528 1.52-1.584v-4.32c.608-.224 1.2-.48 1.792-.736v-1.552c-.576.288-1.184.544-1.792.784v-2.816h1.648v-1.456h-1.648v-2.88h-1.456v2.88h-2.032v1.456h2.032v3.328c-.768.24-1.536.448-2.32.608l.368 1.52a39.466 39.466 0 0 0 1.952-.608v3.408c0 .4-.208.608-.592.608-.464 0-.96-.032-1.472-.096l.336 1.456h1.664zm11.696-7.552h-7.584v7.696h1.504v-.704h4.56v.704h1.52v-7.696zm-6.08 5.648v-1.504h4.56v1.504h-4.56zm0-2.848v-1.472h4.56v1.472h-4.56zm-81.16 20.416v4.208c-.48.08-.96.144-1.44.208l.368 1.456a46.162 46.162 0 0 0 4.464-.992v-1.424c-.624.176-1.264.336-1.904.48v-3.936h1.376v-1.424h-4.24v1.424h1.376zm6.24 6.816c.768 0 1.424-1.168 2-3.488l-1.2-.976c-.288 1.824-.544 2.768-.8 2.8-.432-.08-.8-1.024-1.12-2.848-.224-1.472-.384-3.44-.448-5.888h3.024v-1.472h-3.056c-.032-.88-.032-1.808-.032-2.8h-1.472c0 .96 0 1.904.032 2.8h-4.912v1.472h4.944c.064 2.048.192 3.76.384 5.168.224 1.632.592 2.96 1.104 3.968.448.832.976 1.264 1.552 1.264zm-.288-14.688l-1.04.656c.64.736 1.168 1.408 1.552 2.016l1.056-.736c-.384-.544-.896-1.2-1.568-1.936zm-10.528.192l-1.056 1.04c1.056.832 1.904 1.632 2.512 2.384l1.04-1.056c-.672-.8-1.504-1.584-2.496-2.368zm-2.16 4.64v1.456h2.128v5.92c0 .304-.144.56-.4.784l.576 1.36a20.156 20.156 0 0 0 2.848-2.544l-.4-1.6c-.4.448-.784.848-1.152 1.216v-6.592h-3.6zm17.024-3.648v1.248h5.312a8.926 8.926 0 0 1-.24.8h-4.192v1.232h3.696a7.712 7.712 0 0 1-.432.8H46.01v1.248h4.128c-1.088 1.312-2.56 2.384-4.416 3.2l.704 1.344a18.807 18.807 0 0 0 2.592-1.632v5.424h1.488v-.528h6.784v.528h1.472v-7.504h-7.568c.224-.272.432-.544.64-.832h8.64v-1.248h-7.888c.128-.256.256-.528.384-.8h5.808v-1.232h-5.36c.08-.256.16-.512.224-.8h5.984v-1.248h-3.104c.224-.352.416-.72.56-1.12l-1.488-.192a5.343 5.343 0 0 1-.592 1.312h-3.44c-.192-.48-.4-.912-.608-1.296l-1.504.256c.224.32.448.672.64 1.04h-3.216zm3.632 9.184h6.784v.8h-6.784v-.8zm6.784-1.088h-6.784v-.752h6.784v.752zm0 3.856h-6.784v-.864h6.784v.864zm6.144-12.88l-1.104 1.056c1.12.816 2 1.584 2.624 2.288l1.088-1.088a19.918 19.918 0 0 0-2.608-2.256zm-.4 3.824l-1.088 1.056c1.184.816 2.096 1.584 2.752 2.32l1.088-1.088c-.736-.768-1.664-1.52-2.752-2.288zm1.392 4.304a46.339 46.339 0 0 1-2.32 5.632l1.472.656a53.662 53.662 0 0 0 2.256-5.744l-1.408-.544zM70.33 166c1.056 0 1.584-.56 1.584-1.648v-4.288h3.936v-1.472h-3.936v-1.584h2.096v-1.2c.512.352 1.088.672 1.696.992l.88-1.264c-2.208-1.088-3.856-2.448-4.944-4.08h-1.36c-1.216 1.728-2.8 3.136-4.72 4.24l.864 1.264c.528-.32 1.056-.672 1.568-1.056v1.104h2.4v1.584h-4.192v1.472h4.192v3.904c0 .448-.208.672-.592.672-.48 0-.96-.032-1.456-.096l.336 1.456h1.648zm-1.984-10.384c.96-.768 1.824-1.68 2.608-2.704a12.78 12.78 0 0 0 2.784 2.704h-5.392zm5.616 5.248l-1.184.736c.928 1.344 1.68 2.56 2.224 3.648l1.2-.848c-.528-1.008-1.28-2.192-2.24-3.536zm-6.128.048c-.608 1.392-1.328 2.592-2.192 3.584l1.232.896c.848-1.088 1.584-2.384 2.224-3.872l-1.264-.608zm11.6-9.36l-1.104 1.056c1.12.816 2 1.584 2.624 2.288l1.088-1.088a19.918 19.918 0 0 0-2.608-2.256zm-.4 3.824l-1.088 1.056c1.184.816 2.096 1.584 2.752 2.32l1.088-1.088c-.736-.768-1.664-1.52-2.752-2.288zm1.392 4.304a46.339 46.339 0 0 1-2.32 5.632l1.472.656a53.662 53.662 0 0 0 2.256-5.744l-1.408-.544zM86.33 166c1.056 0 1.584-.56 1.584-1.648v-4.288h3.936v-1.472h-3.936v-1.584h2.096v-1.2c.512.352 1.088.672 1.696.992l.88-1.264c-2.208-1.088-3.856-2.448-4.944-4.08h-1.36c-1.216 1.728-2.8 3.136-4.72 4.24l.864 1.264c.528-.32 1.056-.672 1.568-1.056v1.104h2.4v1.584h-4.192v1.472h4.192v3.904c0 .448-.208.672-.592.672-.48 0-.96-.032-1.456-.096l.336 1.456h1.648zm-1.984-10.384c.96-.768 1.824-1.68 2.608-2.704a12.78 12.78 0 0 0 2.784 2.704h-5.392zm5.616 5.248l-1.184.736c.928 1.344 1.68 2.56 2.224 3.648l1.2-.848c-.528-1.008-1.28-2.192-2.24-3.536zm-6.128.048c-.608 1.392-1.328 2.592-2.192 3.584l1.232.896c.848-1.088 1.584-2.384 2.224-3.872l-1.264-.608zm14.928-1.568h1.84v1.84h-1.84v-1.84zm3.152 1.84v-1.84h1.84v1.84h-1.84zm1.84-3.088h-1.84v-1.808h1.84v1.808zm-3.152-1.808v1.808h-1.84v-1.808h1.84zm-6.512-4.16v1.472h14.304v-1.472H94.09zm12.336 4.048v7.744H96.09v-7.696h-1.472v9.872h1.472v-.736h10.336v.736h1.472v-9.92h-1.472zm-9.12-1.264v7.648h7.904v-7.648h-7.904zm17.456 4.432h1.84v1.84h-1.84v-1.84zm3.152 1.84v-1.84h1.84v1.84h-1.84zm1.84-3.088h-1.84v-1.808h1.84v1.808zm-3.152-1.808v1.808h-1.84v-1.808h1.84zm-6.512-4.16v1.472h14.304v-1.472H110.09zm12.336 4.048v7.744H112.09v-7.696h-1.472v9.872h1.472v-.736h10.336v.736h1.472v-9.92h-1.472zm-9.12-1.264v7.648h7.904v-7.648h-7.904zm17.824-2.368h-4.704v12.048h1.504v-1.072h1.728v.736h1.472v-11.712zm-3.2 9.504v-8.032h1.728v8.032h-1.728zm7.264-8.624v4.672h-1.568v-4.672h1.568zm1.408 4.672v-4.672h1.632v4.672h-1.632zm3.104-6.08h-7.552v11.888c0 1.296.56 1.952 1.68 1.952h4.8c.784-.032 1.296-.432 1.52-1.2.144-.48.272-1.28.368-2.368l-1.424-.464c-.08 1.152-.16 1.84-.256 2.08a.735.735 0 0 1-.688.496h-3.696c-.56 0-.832-.368-.832-1.072v-3.824h6.08v-7.488zm9.872 1.04l.368 8.192h1.264l.368-8.192h-2zm.992 9.136c-.32 0-.592.096-.816.32-.24.208-.352.48-.352.816 0 .32.112.592.352.816.224.224.496.336.816.336.32 0 .608-.112.848-.32.224-.224.336-.496.336-.832 0-.336-.112-.608-.336-.816-.224-.224-.512-.32-.848-.32zM55.694 55.569l-.251.045a75.737 75.737 0 0 1-3.436.507c-3.1.386-6.217.6-9.11.55-6.697-.115-10.854-1.625-11.518-4.489-.865-3.727 4.852-10.1 15.172-15.825C58.643 29.65 75.069 24.71 93.25 22.92c14.771-1.454 24.068-1.52 29.39-.306 4.341.99 5.785 2.61 5.785 5.633 0 1.46-1.479 3.06-4.58 4.794-2.643 1.477-5.696 2.73-11.79 4.972l-.662.243-.662.243c-7.266 2.67-10.586 4.04-13.678 5.858-4.402 2.59-6.566 5.435-5.856 8.878.744 3.603 4.497 4.723 10.717 4.29 4.314-.302 8.673-1.107 18.278-3.182l.296-.064c9.746-2.105 13.704-2.85 17.752-3.166 4.768-.37 7.117.296 7.387 1.692.735 3.81-4.498 8.372-13.81 12.785-3.175 1.505-6.585 2.883-9.995 4.103a117.815 117.815 0 0 1-4.215 1.42l-.316.097a1.5 1.5 0 0 0 .86 2.873 83.533 83.533 0 0 0 1.299-.41c1.022-.33 2.159-.717 3.382-1.155 3.498-1.251 6.996-2.665 10.27-4.217 4.563-2.162 8.318-4.418 11.007-6.762 3.417-2.978 5.085-6.083 4.463-9.302-.684-3.547-4.382-4.596-10.565-4.115-4.238.33-8.254 1.086-18.152 3.225l-.296.063c-9.45 2.042-13.74 2.834-17.854 3.121-4.84.338-7.256-.383-7.57-1.902-.379-1.836 1.02-3.676 4.439-5.686 2.877-1.692 6.108-3.025 13.191-5.628l.663-.243.662-.244c6.248-2.298 9.39-3.587 12.22-5.169 3.96-2.214 6.115-4.546 6.115-7.412 0-9.019-9.436-11.171-38.469-8.313-18.58 1.83-35.402 6.888-47.862 13.8-11.403 6.325-17.922 13.593-16.639 19.126 1.1 4.746 6.409 6.674 14.39 6.81 3.05.052 6.302-.17 9.532-.571a78.723 78.723 0 0 0 3.585-.53c.139-.025.236-.042.289-.053a1.5 1.5 0 0 0-.558-2.947z" fill="#FFF"/><g transform="rotate(-20 171.761 -134.738)"><use fill="#FFE0C2" xlink:href="#a"/><use xlink:href="#a"/></g><g transform="rotate(-20 171.761 -134.738)"><use fill="#F0BB90" xlink:href="#b"/><use xlink:href="#b"/></g><g transform="rotate(-20 171.761 -134.738)"><use fill="#F0BB90" xlink:href="#c"/><use xlink:href="#c"/></g><g transform="rotate(-20 171.761 -134.738)"><use fill="#F0BB90" xlink:href="#d"/><use xlink:href="#d"/></g><g transform="rotate(-20 171.761 -134.738)"><use fill="#F0BB90" xlink:href="#e"/><use xlink:href="#e"/></g><path d="M100.807 68.446c1.19 2.854 2.807 5.67 3.473 5.428.652-.237.208-3.059-.555-5.61-.638.577-.425 1.237-1.024 1.27-.638.037-1.461-.665-1.894-1.088z" fill="#F0BB90"/><path d="M114.92 83.538a182.374 182.374 0 0 0-4.102-12.87c-.401-1.101-2.085-2.756-3.954-3.11 6.99 20.113 9.653 37.044-8.26 44.577 2.045-.28 4.202-.868 6.584-1.735 9.542-3.473 11.105-8.456 11.818-14.791.272-2.416-.74-7.177-2.086-12.071z" fill="#FAC396"/></g></svg>