<svg width="170" height="144" viewBox="0 0 170 144" xmlns="http://www.w3.org/2000/svg"><title>Rectangle 203 + 每个专题的讲解视频在这里，不知道该怎么做</title><g fill="none" fill-rule="evenodd"><path d="M4.996 10C2.243 10 0 12.17 0 14.934v124.61a4.994 4.994 0 0 0 4.996 5.006h160.008a5.005 5.005 0 0 0 4.996-5.005V14.935c0-2.775-2.237-4.935-4.996-4.935H133.5L126.684.673c-.66-.902-1.714-.894-2.368 0L117.5 10H4.996z" fill="#636363"/><path d="M24.14 29.953h9.17v-.966h-8.624c.168-.336.336-.7.504-1.064l-1.022-.238c-.77 1.764-1.75 3.178-2.954 4.27l.644.784c.868-.784 1.624-1.722 2.282-2.786zm2.254 5.614l-.462.658c.952.336 1.89.798 2.814 1.386l.476-.728a15.018 15.018 0 0 0-2.828-1.316zm-3.57 3.052H31c-.028.196-.042.336-.07.392-.126.308-.322.518-.574.616-.252.07-.546.112-.882.112-.532 0-1.134-.028-1.806-.056l.308.938c.616 0 1.176-.014 1.652-.014.672 0 1.19-.098 1.526-.294.364-.224.602-.546.728-.98.028-.112.07-.35.098-.714h1.61v-.938h-1.54c.028-.616.07-1.414.112-2.394h1.806v-.952h-1.764l.098-3.22h-8.694a49.069 49.069 0 0 1-.182 3.22H21.06v.952h2.268a43.405 43.405 0 0 1-.504 3.332zm8.26-.938h-7.098c.14-.728.252-1.526.35-2.394h6.86c-.042.98-.084 1.778-.112 2.394zm-6.65-3.346c.056-.714.098-1.47.126-2.282h6.734c-.028.826-.042 1.582-.07 2.282h-2.38l.462-.7a14.75 14.75 0 0 0-2.8-1.316l-.462.672c.924.336 1.848.784 2.744 1.344h-4.354zm16.548-2.408v8.68h1.036v-8.68h-1.036zm.07-4.13c-1.414 2.1-3.43 3.822-6.048 5.152l.602.91c2.38-1.204 4.34-2.912 5.894-5.124 1.288 2.016 3.262 3.696 5.894 5.068l.602-.91c-2.856-1.47-4.872-3.164-6.048-5.096h-.896zm8.162 4.256v.98h3.724c-.294.966-.616 1.89-.952 2.786h6.916c-.742.924-1.764 1.82-3.052 2.66a42.641 42.641 0 0 0-3.024-.938l-.532.784a35.745 35.745 0 0 1 6.496 2.45l.56-.882a29.24 29.24 0 0 0-2.422-1.022c1.442-1.036 2.492-2.086 3.164-3.122v-.868h-6.664c.196-.574.406-1.19.602-1.848h7.756v-.98h-7.49c.14-.546.28-1.12.42-1.736h6.244v-.938h-6.034c.112-.504.21-1.05.322-1.61l-1.036-.084c-.112.56-.224 1.12-.35 1.694h-3.696v.938h3.486a62.87 62.87 0 0 1-.434 1.736h-4.004zm23.576 7.392c-2.87 0-4.704-.126-5.516-.378a1.63 1.63 0 0 0-.21-.084v-1.526h1.918v-.896h-1.918v-1.484h2.268v-.924h-5.936v.924h2.772v3.402c-.434-.322-.84-.77-1.204-1.344.07-.42.112-.854.14-1.33l-.896-.112c-.07 1.596-.476 3.024-1.232 4.298l.728.644c.448-.756.798-1.582 1.05-2.478.574.812 1.232 1.386 1.974 1.694.84.364 2.926.546 6.286.546h2.758l.168-1.008c-.7.028-1.75.056-3.15.056zm-8.764-11.116v4.886H68.8v-4.886h-4.774zm3.794 4.046h-2.814v-1.19h2.814v1.19zM65.006 30.4v-1.232h2.814V30.4h-2.814zm4.522-2.058v.924h2.618a9.829 9.829 0 0 1-.182 1.12h-2.002v5.656h.896v-4.788h3.388v4.788h.938v-5.656h-2.31c.084-.364.14-.728.182-1.12h2.52v-.924h-6.048zm4.032 7.742l-.672.644c.91.728 1.624 1.428 2.142 2.072l.714-.7c-.588-.672-1.316-1.344-2.184-2.016zm-1.47-4.172v1.974c-.028 1.05-.238 1.904-.602 2.562-.406.63-1.106 1.134-2.114 1.498l.546.868c1.064-.42 1.848-.994 2.324-1.736.476-.798.742-1.862.77-3.192v-1.974h-.924zm10.066-1.708h-2.254c.28-.7.49-1.47.658-2.296l-1.008-.14c-.126.84-.322 1.652-.602 2.436h-1.302v9.954h.98v-1.204h2.548v.798h.98v-9.548zm-3.528 7.812V34.95h2.548v3.066h-2.548zm0-3.976v-2.884h2.548v2.884h-2.548zm5.964-.588l-.812.504c.966 1.148 1.736 2.184 2.31 3.108l.798-.56c-.532-.868-1.288-1.89-2.296-3.052zm4.802-3.234h-4.466a18.36 18.36 0 0 0 .616-2.338l-.994-.126c-.364 1.988-1.022 3.668-2.002 5.04l.602.798a11.811 11.811 0 0 0 1.4-2.394h3.85c-.028 4.032-.084 6.454-.168 7.238-.112.714-.49 1.078-1.148 1.078-.434 0-.938-.014-1.526-.042l.238.924c.672.028 1.148.056 1.428.056 1.176 0 1.82-.546 1.96-1.61.14-1.092.21-3.976.21-8.624zm8.12-2.408v2.688h-1.806v.938h1.806v2.674c0 .168-.014.336-.028.504h-2.128v.938h2.058c-.252 1.932-.98 3.402-2.212 4.396l.756.644c1.372-1.134 2.184-2.814 2.436-5.04h2.576v5.068h1.008v-5.068h2.016v-.938h-2.016v-3.178h1.722v-.938h-1.722v-2.674h-1.008v2.674h-2.478V27.81h-.98zm3.458 6.804h-2.506c.014-.168.028-.336.028-.504v-2.674h2.478v3.178zm-8.26-6.664l-.7.686c1.022.756 1.82 1.484 2.408 2.17l.686-.7c-.644-.728-1.442-1.442-2.394-2.156zm-1.582 4.116v.966h1.974v5.586c0 .224-.112.42-.308.588l.392.91a18.409 18.409 0 0 0 2.436-2.156l-.266-1.064c-.448.476-.868.896-1.288 1.288v-6.118h-2.94zm21.686 3.234h1.652v1.708h-3.052v.91h3.052v2.744h.98v-2.744h2.38v-.91h-2.38V35.3h2.086v-.91h-2.086v-1.302h-.98v1.302h-1.288a29.7 29.7 0 0 0 .252-1.05l-.84-.154c-.21 1.12-.616 2.002-1.232 2.674l.588.714c.336-.364.616-.784.868-1.274zm.574-5.782a4.166 4.166 0 0 1-.462 1.232c-.308.504-.784.952-1.414 1.316l.588.77c.714-.476 1.26-1.022 1.624-1.61.266-.49.476-1.064.616-1.708h2.058c-.028 1.008-.084 1.638-.168 1.876-.098.238-.336.364-.728.378-.322-.014-.728-.042-1.204-.07l.238.84c.448.028.84.056 1.176.056.602 0 1.022-.196 1.274-.56.252-.378.378-1.512.378-3.416h-5.838v.896h1.862zm-6.608 5.054h1.274v1.834h-1.288c0-.112.014-.21.014-.322v-1.512zm-.056 2.688h1.33v3.164h.812V37.26h1.302v1.946c0 .336-.154.518-.462.518-.224 0-.476-.028-.742-.056l.238.84h.798c.672 0 1.022-.336 1.022-.994v-8.4h-1.68c.308-.434.63-.966.938-1.582v-.7h-2.492c.112-.28.238-.588.35-.896l-.91-.21c-.546 1.456-1.232 2.632-2.072 3.528l.616.742c.042-.056.084-.098.14-.154v4.298c-.014 1.596-.294 2.926-.826 3.962l.686.63c.504-.924.826-2.086.952-3.472zm1.596-6.146h-1.82c.308-.448.616-.924.896-1.456h1.82a17.969 17.969 0 0 1-.896 1.456zm1.848 5.292h-1.302v-1.834h1.302v1.834zm0-2.674h-1.302v-1.75h1.302v1.75zm-2.114-1.75v1.75h-1.274v-1.75h1.274zm13.118 2.828v5.81h.994v-5.922c.504.392 1.022.868 1.526 1.428l.574-.868a12.041 12.041 0 0 0-2.086-1.624c.756-.994 1.316-2.002 1.68-3.024v-.854h-1.75l.406-.154a16.905 16.905 0 0 0-.798-1.946l-.966.28c.322.588.602 1.19.84 1.82h-2.184v.966h3.444c-.63 1.54-1.89 3.108-3.766 4.718l.308 1.05c.644-.56 1.246-1.12 1.778-1.68zm9.674-6.468h-5.95v7.742h.994v-6.776h3.934v6.776h1.022v-7.742zm-.294 12.054c.434 0 .756-.112.966-.322.224-.252.378-.966.462-2.114l-.938-.294c-.042.868-.126 1.4-.238 1.582-.084.14-.224.224-.434.224h-.868c-.308 0-.462-.168-.462-.504v-2.912h-.98v3.122c0 .812.378 1.218 1.148 1.218h1.344zm-3.206-10.094v2.674c-.028 1.764-.322 3.206-.854 4.298-.574 1.064-1.596 1.904-3.066 2.548l.546.882c1.512-.644 2.59-1.554 3.262-2.716.672-1.246 1.036-2.912 1.092-5.012v-2.674h-.98zm8.624-2.52v4.228h-1.078v-3.094h-.966v3.094h-.812v.98h5.908v-.98h-2.072v-1.624h1.904v-.952h-1.904v-1.652h-.98zm2.31 6.384c-.56 2.758-2.254 4.578-5.068 5.446l.574.91c2.968-.98 4.76-3.038 5.376-6.16l-.882-.196zm-4.004.056c-.252 1.134-.644 2.044-1.148 2.73l.742.644c.532-.7.952-1.708 1.288-3.024l-.882-.35zm1.666-.686v3.654h.966v-3.654h-.966zm3.304-5.194v.952h2.744a17.82 17.82 0 0 1-.182 1.54h-2.058v6.65h.966v-5.712h3.626v5.712h.98v-6.65h-2.464c.07-.504.126-1.008.168-1.54h2.8v-.952h-6.58zm4.312 9.212l-.672.644c.994.868 1.778 1.694 2.352 2.464l.742-.742c-.658-.784-1.47-1.568-2.422-2.366zm-1.554-4.942v2.478c-.028 1.204-.28 2.17-.742 2.926-.49.7-1.358 1.274-2.604 1.722l.56.868c1.316-.462 2.254-1.106 2.828-1.932.588-.896.91-2.086.938-3.584v-2.478h-.98zM25.526 55.727v.98h3.206v3.864h-3.78v.994h8.778v-.994h-3.976v-3.864H33.1v-.98h-3.346v-2.604h-1.022v2.604h-3.206zm-2.254.616v5.74h.994v-6.888a17.259 17.259 0 0 0 1.96-3.094h7.49v-.994h-7.042a19.75 19.75 0 0 0 .658-1.876l-1.05-.126a16.23 16.23 0 0 1-.728 2.002H21.48v.994h3.598c-.98 1.862-2.338 3.514-4.088 4.956l.63.826a21.686 21.686 0 0 0 1.652-1.54zm16.226-5.082v.966h5.768c-.336 1.274-.812 2.394-1.456 3.36a54.248 54.248 0 0 0-3.094-2.436l-.686.658a66.985 66.985 0 0 1 3.192 2.562c-1.022 1.204-2.366 2.086-4.018 2.618l.574.91c1.68-.588 3.08-1.554 4.186-2.87 1.05.952 1.974 1.876 2.758 2.8l.784-.784a38.302 38.302 0 0 0-2.954-2.814c.728-1.106 1.302-2.436 1.708-4.004h1.246v-.966H43.95a19.558 19.558 0 0 0-.63-2.072l-1.022.168c.224.56.434 1.204.63 1.904h-3.43zm-3.234-1.834l-.686.658c1.008.784 1.792 1.512 2.366 2.198l.728-.714a17.709 17.709 0 0 0-2.408-2.142zm8.162 12.362h3.206l.238-1.008a32.14 32.14 0 0 1-1.568.056c-.686.014-1.358.028-2.016.028-1.078 0-1.988-.014-2.716-.028-.812-.028-1.442-.14-1.862-.336-.392-.182-.742-.476-1.078-.882a2.381 2.381 0 0 0-.336-.322V54.06h-2.94v.924h2.002v4.256c-.574.252-1.232.966-1.974 2.142l.756.686c.77-1.288 1.316-1.932 1.652-1.932.168 0 .35.112.532.35.434.504.924.854 1.47 1.022.56.154 1.274.238 2.17.252.882.014 1.708.028 2.464.028zm7.14-8.33h3.416v1.862h-3.416v-1.862zm3.416 2.786v1.638h-5.054v.966h5.054v1.736h-5.656v.966H61.66v-.966h-5.642v-1.736h5.054v-.966h-5.054v-1.638h4.368V49.72h-9.8v6.524h4.396zm1.036-.924v-1.862h3.374v1.862h-3.374zm3.374-2.786h-3.374v-1.89h3.374v1.89zm-4.41-1.89v1.89h-3.416v-1.89h3.416zm10.066 8.344a.858.858 0 0 0-.616.224c-.168.14-.238.35-.238.616 0 .238.07.434.238.588.168.14.364.224.616.224a.974.974 0 0 0 .224-.028c-.056.728-.448 1.33-1.176 1.806l.378.602c1.05-.574 1.582-1.47 1.582-2.674 0-.91-.336-1.358-1.008-1.358zM77.55 49.93v.994h6.216c-1.232 2.604-3.444 4.816-6.608 6.636l.658.882c2.128-1.274 3.85-2.73 5.166-4.368v7.994h1.036V52.59c.322-.532.616-1.092.868-1.666h4.564v-.994h-11.9zm8.232 3.766l-.728.686c1.694 1.386 3.024 2.688 4.004 3.92l.77-.784c-1.092-1.274-2.436-2.548-4.046-3.822zm17.458-3.01h-4.69v10.738h.966V60.5h2.744v.896h.98v-10.71zm-3.724 8.876v-7.938h2.744v7.938h-2.744zm-6.258-7.518h1.358a23.87 23.87 0 0 1-.182 2.786h-3.066v.966h2.926c-.07.364-.154.714-.238 1.05-.476 1.638-1.456 2.996-2.94 4.074l.658.812c1.484-1.064 2.506-2.38 3.08-3.948.658.728 1.456 1.75 2.408 3.094l.602-.924a41.594 41.594 0 0 0-2.744-3.094c.084-.336.154-.7.224-1.064h2.478v-.966h-2.338a27.6 27.6 0 0 0 .168-2.786h2.044v-.966H93.65c.196-.532.378-1.106.546-1.708l-.994-.21a13.924 13.924 0 0 1-2.002 4.424l.882.56c.434-.644.826-1.344 1.176-2.1zm15.904-1.288v.938h3.5a7.03 7.03 0 0 1-.35 1.134h-2.24v6.748h6.636v-6.748h-3.332c.14-.364.266-.742.364-1.134h3.92v-.938h-2.38a7.72 7.72 0 0 0 .77-1.26l-.98-.336c-.252.56-.56 1.092-.896 1.596h-1.652a8.656 8.656 0 0 0-.854-1.568l-.938.35c.28.378.532.784.756 1.218h-2.324zm6.594 7.924h-4.732v-1.162h4.732v1.162zm-4.732-1.974v-1.064h4.732v1.064h-4.732zm0-1.876v-1.106h4.732v1.106h-4.732zm-4.76-5.404l-.686.658c1.022.784 1.82 1.526 2.408 2.226l.714-.7c-.658-.728-1.47-1.456-2.436-2.184zm8.162 12.362h3.206l.238-1.008a32.14 32.14 0 0 1-1.568.056c-.686.014-1.358.028-2.016.028-1.092 0-2.002-.014-2.73-.028-.826-.028-1.456-.14-1.89-.336-.378-.182-.742-.476-1.078-.882a2.381 2.381 0 0 0-.336-.322V54.06h-2.996v.924h2.058v4.256c-.574.224-1.246.938-2.016 2.142l.756.672c.798-1.288 1.358-1.918 1.694-1.918.168 0 .35.112.546.35.42.504.91.854 1.47 1.022.56.154 1.288.238 2.184.252.896.014 1.722.028 2.478.028zm9.38-11.046v.91h2.954c-1.008 1.498-1.834 2.422-2.478 2.772a1.365 1.365 0 0 1-.196.084l.224.868c1.246-.042 2.422-.098 3.514-.168-1.036 1.064-2.324 1.862-3.864 2.38l.532.84c2.604-.938 4.592-2.674 5.95-5.222l-.854-.448c-.308.56-.644 1.092-1.008 1.582-1.008.07-2.016.126-3.024.168.658-.574 1.428-1.526 2.31-2.856h4.074v-.91h-3.374a22.053 22.053 0 0 0-.686-1.722l-1.05.168c.28.476.518.994.728 1.554h-3.752zm4.9 8.484c1.05.952 1.89 1.876 2.52 2.744l.728-.728c-.728-.882-1.596-1.75-2.604-2.618a15.35 15.35 0 0 0 2.464-3.332l-.854-.462c-1.68 3.108-4.214 5.194-7.588 6.272l.546.868a13.986 13.986 0 0 0 4.788-2.744zm-7.91-9.856l-.7.686c.994.742 1.778 1.442 2.352 2.1l.686-.686c-.644-.7-1.414-1.4-2.338-2.1zm-1.708 4.116v.966h2.058v5.6c0 .224-.112.42-.308.602l.392.896a19.847 19.847 0 0 0 2.716-2.17l-.28-1.064a26.466 26.466 0 0 1-1.554 1.414v-6.244h-3.024zm17.248-1.876h.938v5.46h1.022v-1.106h5.978v-.91h-5.978v-1.246h5.572v-.882h-5.572V51.61h6.608v-.938h-8.064c.196-.42.378-.854.574-1.316l-.966-.224c-.77 1.876-1.764 3.388-2.968 4.55l.686.798a13.792 13.792 0 0 0 2.17-2.87zm-1.512 5.992a9.735 9.735 0 0 1-1.61 3.234l.868.532c.742-.994 1.316-2.184 1.722-3.57l-.98-.196zm5.194-.574l-.896.294c.462.672.896 1.456 1.288 2.352l.882-.392a14.668 14.668 0 0 0-1.274-2.254zm3.85.336l-.91.294c.728.952 1.372 2.058 1.96 3.304l.896-.392a21.26 21.26 0 0 0-1.946-3.206zm-2.366 4.438c.532 0 .91-.112 1.162-.308.28-.238.476-.91.56-2.03l-.952-.308c-.056.798-.154 1.288-.322 1.456-.126.14-.336.21-.63.21h-2.842c-.42 0-.616-.182-.616-.532v-2.66h-1.022v2.87c0 .868.434 1.302 1.316 1.302h3.346zM30.468 77.343l-.966.308a30.99 30.99 0 0 1 1.918 3.346 84.637 84.637 0 0 1-6.902.756c1.456-1.442 3.402-4.158 5.838-8.162l-1.008-.504c-2.072 3.57-4.004 6.272-5.796 8.106-.308.322-.602.532-.882.644l.28 1.036c3.5-.21 6.482-.532 8.918-.966.196.448.406.91.616 1.386l.98-.434a33.194 33.194 0 0 0-2.996-5.516zm-3.934-6.776c-1.414 2.856-3.22 5.152-5.404 6.902l.7.84c2.394-1.96 4.326-4.452 5.796-7.504l-1.092-.238zm17.248 5.068c.182 1.596.574 3.052 1.162 4.354-.588 1.134-1.386 2.03-2.394 2.688l.588.77c.924-.644 1.68-1.47 2.296-2.492a11.363 11.363 0 0 0 1.876 2.464l.7-.672a10.27 10.27 0 0 1-2.072-2.744c.742-1.652 1.134-3.752 1.176-6.272h.658v-.938h-3.024c.14-.588.252-1.204.35-1.862l-.938-.168c-.294 2.268-.854 4.06-1.694 5.39l.602.728c.252-.364.49-.784.714-1.246zm1.638 3.248c-.574-1.414-.91-3.038-1.008-4.858l.084-.294h1.736c-.028 1.988-.294 3.71-.812 5.152zm-7.602-8.218c-.588 2.128-1.54 4.018-2.828 5.67l.322 1.078c.476-.56.91-1.148 1.316-1.75v7.826h.98v-9.534a18.35 18.35 0 0 0 1.12-2.856l-.91-.434zm4.844 6.328H41.15v-2.744h1.792v-.938H41.15v-2.492h-.952v2.492h-1.82v.938h1.82v2.744H38.7v5.754h.952v-.91h3.01v-4.844zm-3.01 3.962v-3.066h2.058v3.066h-2.058zm14.504-7.91h-2.254c.28-.7.49-1.47.658-2.296l-1.008-.14c-.126.84-.322 1.652-.602 2.436h-1.302v9.954h.98v-1.204h2.548v.798h.98v-9.548zm-3.528 7.812V77.79h2.548v3.066h-2.548zm0-3.976v-2.884h2.548v2.884h-2.548zm5.964-.588l-.812.504c.966 1.148 1.736 2.184 2.31 3.108l.798-.56c-.532-.868-1.288-1.89-2.296-3.052zm4.802-3.234h-4.466a18.36 18.36 0 0 0 .616-2.338l-.994-.126c-.364 1.988-1.022 3.668-2.002 5.04l.602.798a11.811 11.811 0 0 0 1.4-2.394h3.85c-.028 4.032-.084 6.454-.168 7.238-.112.714-.49 1.078-1.148 1.078-.434 0-.938-.014-1.526-.042l.238.924c.672.028 1.148.056 1.428.056 1.176 0 1.82-.546 1.96-1.61.14-1.092.21-3.976.21-8.624zm6.286-1.386h-4.032v10.654h.98v-1.274H66.7v.938h.98V71.673zm-3.052 8.442V76.74H66.7v3.374h-2.072zm0-4.312v-3.206H66.7v3.206h-2.072zm5.068.042l-.826.518c.84 1.288 1.498 2.464 1.988 3.514l.84-.588c-.462-.98-1.134-2.128-2.002-3.444zm3.192 7.476c.868 0 1.302-.448 1.302-1.33v-7.826h1.722v-.966H74.19v-2.464h-1.022v2.464h-4.844v.966h4.844v7.574c0 .434-.21.658-.616.658-.742 0-1.512-.028-2.324-.056l.21.98h2.45zm6.986-12.712c-.602 2.17-1.568 4.088-2.884 5.768l.322 1.064c.49-.574.938-1.176 1.358-1.82v7.868h.938v-9.492c.462-.924.854-1.918 1.162-2.968l-.896-.42zm.924 2.562v8.246h.938V73.17h-.938zm1.568.602v.896h7.14v-.896h-1.428v-2.548h-5.054v.896h4.06v1.652h-4.718zm1.554 3.206h1.54v.14c0 .546-.056 1.064-.168 1.554H82.31v.882h2.716c-.56 1.428-1.708 2.478-3.43 3.15l.63.826c1.75-.756 2.968-1.932 3.64-3.514.7 1.26 1.834 2.408 3.388 3.458l.658-.826c-1.596-.924-2.716-1.946-3.374-3.094h3.206v-.882h-3.472c.098-.532.154-1.092.168-1.694h2.716v-.896h-4.774c.126-.294.252-.602.378-.91l-.854-.196c-.42 1.092-.952 1.974-1.61 2.646l.602.728a9.446 9.446 0 0 0 1.022-1.372zm18.676 6.258c.378 0 .658-.154.854-.448.196-.336.336-1.274.406-2.842l-.868-.28c-.028 1.288-.098 2.072-.196 2.338-.07.21-.196.322-.364.322h-.406c-.252 0-.378-.14-.378-.406v-7.07h1.862v-.938H99.95v-3.276h-.938v3.276H97.64v.938h1.358c-.084 3.542-.854 6.146-2.324 7.798l.714.63c1.61-1.806 2.464-4.62 2.548-8.428h.77v7.28c0 .728.336 1.106 1.022 1.106h.868zM91.312 72.05v.924h6.37v-.924h-2.576a14.39 14.39 0 0 0-.616-1.442l-1.078.168c.252.378.49.798.686 1.274h-2.786zm.602 2.072v3.5H94v4.354c0 .336-.154.518-.448.518-.294 0-.602-.028-.938-.07l.196.91h1.064c.714 0 1.078-.378 1.078-1.12v-4.592h2.002v-3.5h-5.04zm4.102 2.632h-3.178V74.99h3.178v1.764zm-3.78 1.638c-.336 1.302-.728 2.38-1.176 3.234l.826.308c.476-.952.868-2.058 1.176-3.318l-.826-.224zm4.228-.028l-.812.224c.378.868.686 1.764.938 2.674l.812-.308a21.266 21.266 0 0 0-.938-2.59zm5.138-7.546l-.756.462c.658.77 1.176 1.47 1.54 2.1l.756-.504c-.364-.588-.868-1.274-1.54-2.058zm4.606 2.38v.868h3.976c-.182.308-.392.63-.616.952h-4.116v.896h3.416c-.994 1.176-2.254 2.268-3.78 3.304l.546.868A21.716 21.716 0 0 0 108 78.225v5.25h.966v-.602h6.328v.602h.966V76.88h-6.944c.266-.308.518-.63.77-.966h7.574v-.896h-6.958c.182-.308.364-.616.532-.952h5.614v-.868h-5.208c.14-.35.28-.714.406-1.092 1.764-.14 3.304-.35 4.634-.644l-.462-.798c-2.618.532-5.908.798-9.884.798l.294.84c1.596 0 3.08-.042 4.452-.126-.14.336-.28.686-.434 1.022h-4.438zm2.758 6.23h6.328v.882h-6.328v-.882zm6.328-.784h-6.328v-.938h6.328v.938zm-6.328 2.45h6.328v.952h-6.328v-.952zm11.242-7.896v.868h3.976c-.182.308-.392.63-.616.952h-4.116v.896h3.416c-.994 1.176-2.254 2.268-3.78 3.304l.546.868A21.716 21.716 0 0 0 122 78.225v5.25h.966v-.602h6.328v.602h.966V76.88h-6.944c.266-.308.518-.63.77-.966h7.574v-.896h-6.958c.182-.308.364-.616.532-.952h5.614v-.868h-5.208c.14-.35.28-.714.406-1.092 1.764-.14 3.304-.35 4.634-.644l-.462-.798c-2.618.532-5.908.798-9.884.798l.294.84c1.596 0 3.08-.042 4.452-.126-.14.336-.28.686-.434 1.022h-4.438zm2.758 6.23h6.328v.882h-6.328v-.882zm6.328-.784h-6.328v-.938h6.328v.938zm-6.328 2.45h6.328v.952h-6.328v-.952zm12.39-9.03l.21 7.308h.868l.224-7.308h-1.302zm.644 8.33a.802.802 0 0 0-.602.238c-.168.154-.238.35-.238.588s.07.434.238.602a.858.858 0 0 0 .602.238.892.892 0 0 0 .616-.238.812.812 0 0 0 .238-.602.802.802 0 0 0-.238-.588.833.833 0 0 0-.616-.238z" fill="#FFF"/></g></svg>