<svg width="50" height="60" viewBox="0 0 50 60" xmlns="http://www.w3.org/2000/svg"><title>Fire_red</title><g fill="none" fill-rule="evenodd"><path d="M26.48.094c-.323.092-.677.28-1.05.605a31.596 31.596 0 0 0-1.717 1.603c-4.845 4.805-8.172 11.204-8.996 18.55-.178 1.599-.195 3.177-.126 4.741A32.196 32.196 0 0 0 17.03 36.6c-6.784-1.856-9.703-11.117-5.7-20.543.151-.248.083-.522-.117-.717-1.113 1.686-3.087 5.023-4.331 9.127 1.244-4.104 3.218-7.44 4.33-9.127-.174-.172-.444-.284-.793-.247-.257.028-.549.13-.864.343C3.779 20.07 0 27.097 0 35.048c0 8.206 3.962 15.469 10.05 20.017 4.165 3.111 9.315 4.965 14.913 4.935 1.967 0 3.866-.258 5.697-.692a25.78 25.78 0 0 0 3.371-1.023 24.996 24.996 0 0 0 15.541-18.873c.259-1.444.428-2.919.428-4.438 0-5.597-1.9-10.704-5.02-14.851-1.49-1.979-3.233-3.757-5.226-5.229-.443-.343-.805-.494-1.1-.528l-.001-.002c-.342-.04-.594.076-.754.298a1.18 1.18 0 0 0-.221.701c-.423 3.077-1.814 7.19-4.764 8.753-.755.397-1.58.673-2.55.673-3.16-5.553-4.696-12.038-3.928-18.917.15-1.704.455-3.395.917-5.022.119-.42-.03-.615-.265-.733-.071-.035-.11-.094-.197-.113-.117-.022-.27.047-.41.088l-.002.002z" fill="#F4662C"/><path d="M15.565 58.187c2.899 1.182 6.07 1.83 9.398 1.813 1.967 0 3.866-.258 5.697-.692a25.78 25.78 0 0 0 3.371-1.023 24.996 24.996 0 0 0 15.541-18.873c.259-1.444.428-2.919.428-4.438 0-5.597-1.9-10.704-5.02-14.851-1.49-1.979-3.233-3.757-5.226-5.229-.443-.343-.805-.494-1.1-.528l-.001-.002c-.342-.04-.594.076-.754.298a1.18 1.18 0 0 0-.221.701c-.113.819-.293 1.71-.554 2.607 5.017 14.63 6.381 34.985-21.56 40.217z" fill="#E14D18"/><path d="M6.839 37.675c4.371 11.398 18.874 5.698 18.874 5.698s-6.087.114-8.89-7.256c-6.703-1.81-9.587-10.85-5.634-20.052.152-.24.083-.51-.114-.7-2.2 3.292-7.798 13.025-4.236 22.31M21.664 29.01c5.87 9.575 16.917 4.275 17.608-2.906.427-4.455.055-8.25-.822-11.635-.337-.04-.585.074-.742.29-.131.182-.22.406-.22.685-.42 3.002-1.793 7.017-4.708 8.543-.744.387-1.561.657-2.52.657-3.12-5.422-4.637-11.75-3.879-18.465.148-1.662.448-3.313.905-4.901.118-.41-.028-.6-.263-.715l-.194-.11-.405.085c-2.62 5.204-9.593 20.59-4.76 28.472" fill="#E14D18"/></g></svg>