<svg width="20" height="24" viewBox="0 0 20 24" xmlns="http://www.w3.org/2000/svg"><title>Fire_red</title><g fill="none" fill-rule="evenodd"><path d="M10.592.037c-.13.038-.27.113-.42.243-.238.203-.465.42-.687.64a12.34 12.34 0 0 0-3.598 7.42c-.071.64-.078 1.272-.05 1.897.066 1.547.406 3.04.975 4.403-2.714-.742-3.881-4.447-2.28-8.217.06-.1.033-.209-.047-.287-.445.675-1.235 2.01-1.732 3.65.497-1.64 1.287-2.975 1.732-3.65a.383.383 0 0 0-.317-.099.77.77 0 0 0-.346.137C1.512 8.028 0 10.84 0 14.02a9.974 9.974 0 0 0 4.02 8.007A9.84 9.84 0 0 0 9.985 24c.787 0 1.547-.103 2.28-.277.46-.11.913-.24 1.348-.409a9.998 9.998 0 0 0 6.216-7.55A10.04 10.04 0 0 0 20 13.99c0-2.24-.76-4.282-2.008-5.94a10.257 10.257 0 0 0-2.09-2.092c-.178-.138-.323-.198-.44-.212-.138-.016-.238.03-.302.119a.472.472 0 0 0-.089.28c-.169 1.231-.725 2.876-1.905 3.502-.303.158-.633.269-1.02.269a12.397 12.397 0 0 1-1.571-7.567c.06-.682.181-1.358.366-2.009.048-.168-.012-.246-.106-.293-.028-.014-.044-.038-.079-.045-.047-.01-.108.019-.164.035z" fill="#F4662C"/><path d="M6.226 23.275a9.785 9.785 0 0 0 3.76.725c.786 0 1.546-.103 2.278-.277.461-.11.914-.24 1.349-.409a9.998 9.998 0 0 0 6.216-7.55A10.04 10.04 0 0 0 20 13.99c0-2.24-.76-4.282-2.008-5.94a10.257 10.257 0 0 0-2.09-2.092c-.178-.138-.323-.198-.44-.212-.138-.016-.238.03-.302.119a.472.472 0 0 0-.089.28 7.38 7.38 0 0 1-.221 1.043c2.006 5.852 2.552 13.994-8.624 16.087z" fill="#E14D18"/><path d="M2.735 15.07c1.75 4.56 7.55 2.28 7.55 2.28s-2.435.045-3.556-2.903c-2.68-.724-3.835-4.34-2.253-8.02.06-.097.033-.205-.046-.281-.88 1.317-3.12 5.21-1.695 8.924M8.665 11.604c2.348 3.83 6.767 1.71 7.044-1.162.17-1.783.022-3.3-.329-4.654-.135-.016-.234.03-.297.116a.458.458 0 0 0-.088.274c-.167 1.2-.717 2.806-1.883 3.417a2.136 2.136 0 0 1-1.008.262c-1.248-2.168-1.855-4.7-1.552-7.386.06-.664.18-1.325.363-1.96.047-.164-.012-.24-.106-.286l-.077-.044-.163.034C9.521 2.297 6.733 8.451 8.665 11.604" fill="#E14D18"/></g></svg>