<svg width="49" height="17" viewBox="0 0 49 17" xmlns="http://www.w3.org/2000/svg"><title>iconQuit</title><g fill="#888" fill-rule="evenodd"><path d="M26.433 11.438c.416-.083.687.042.812.375.125.292-.02.563-.437.813a91.42 91.42 0 0 1-2.5 1.062c-.417.167-.729.167-.937 0-.209-.125-.313-.375-.313-.75V2.502c0-.333.167-.5.5-.5h6.437c.791 0 1.187.396 1.187 1.188v4.374c0 .833-.396 1.25-1.187 1.25H24.37v3.25c.041.124.125.166.25.124.374-.125.979-.375 1.812-.75zm5.249 4.5c-2.958 0-5.52-.021-7.686-.063-1.625-.041-2.896-.52-3.812-1.437-.167-.208-.334-.208-.5 0-.375.333-.73.77-1.063 1.312-.333.334-.687.354-1.062.063-.292-.292-.292-.667 0-1.125.5-.458 1.042-1.02 1.625-1.687V8.439c.042-.208-.063-.313-.313-.313h-.937c-.375-.083-.583-.333-.625-.75 0-.416.23-.645.688-.687h1.75c.583 0 .874.292.874.875v5.374c.875 1.083 2.104 1.604 3.687 1.562 2.333.042 4.874.063 7.624.063.417 0 .625.23.625.687-.083.5-.375.73-.875.688zm-1.062-2.5a69.294 69.294 0 0 0-4.75-3.25c-.291-.25-.333-.52-.125-.812.334-.25.646-.291.938-.125.625.375 1.229.75 1.812 1.125a86.195 86.195 0 0 0 2.437-1.562c.333-.25.625-.23.875.062.25.25.23.5-.063.75-.666.458-1.395.938-2.187 1.437.667.459 1.313.875 1.937 1.25.334.292.396.625.188 1-.333.292-.687.333-1.062.125zm-1.313-5.812c.375.042.542-.145.5-.562V5.752h-5.436v1.874h4.936zm0-4.499h-4.686c-.125 0-.209.083-.25.25v1.375h5.436V3.69c.042-.417-.125-.605-.5-.563zM20.81 4.94c-.375.209-.73.125-1.063-.25a15.107 15.107 0 0 0-1.312-2c-.167-.374-.104-.687.187-.937.417-.166.75-.083 1 .25.459.625.938 1.271 1.438 1.938.25.416.166.75-.25 1zm14.997 3.437c-.583 0-.895-.291-.937-.875V3.377c.083-.458.333-.708.75-.75.458.042.708.292.75.75v3.187c0 .292.146.438.437.438h3.375V2.065c.083-.458.333-.708.75-.75.5.042.77.292.812.75v4.937h3.374c.292-.042.438-.188.438-.438V3.377c.042-.458.291-.708.75-.75.458.042.708.292.75.75v4.124c-.042.584-.354.875-.938.875h-4.374v6.187h3.874c.292-.042.438-.188.438-.438v-3.749c.083-.375.333-.583.75-.625.458.042.708.25.75.625v4.25c0 .75-.396 1.124-1.188 1.124l-10.81.063c-.75-.042-1.146-.459-1.188-1.25v-4.187c.083-.417.333-.646.75-.687.458.041.708.27.75.687v3.75c0 .25.166.374.5.374l3.812.063V8.376h-4.375zM.469 4.532l9.998 10.002a.75.75 0 1 0 1.06-1.061L1.53 3.471A.75.75 0 1 0 .47 4.53z"/><path d="M10.467 3.47L.47 13.474a.75.75 0 0 0 1.06 1.06l9.999-10.001a.75.75 0 0 0-1.06-1.061z"/></g></svg>