<svg width="40" height="40" viewBox="0 0 40 40" xmlns="http://www.w3.org/2000/svg"><title>Group</title><g fill="none" fill-rule="evenodd"><path d="M10.483 32c-.84 0-1.533-.7-1.533-1.55V8.8c0-.85.692-1.55 1.533-1.55h18.934c.84 0 1.533.7 1.533 1.55v21.65c0 .85-.692 1.55-1.582 1.55H10.483z" fill="#FFF"/><path d="M16.45 14.5h12.4M16.45 19.65h11" stroke="#DBDBDB" stroke-width="1.85"/><path d="M18.4 24.75h6.55" stroke="#DBDBDB" stroke-width="1.621"/><path d="M.95 37.25L.8 37.1c-.4-.4-.4-1.1 0-1.5L7 29.4c.4-.4 1.1-.4 1.5 0l.15.15c.4.4.4 1.1 0 1.5l-6.2 6.2c-.4.4-1.05.4-1.5 0z" fill="#3C3C3C"/><path d="M16.45 15.425h12.4a.925.925 0 1 0 0-1.85h-12.4a.925.925 0 1 0 0 1.85zM16.45 20.575h11a.925.925 0 1 0 0-1.85h-11a.925.925 0 1 0 0 1.85zM18.4 25.56h6.55a.81.81 0 0 0 0-1.62H18.4a.81.81 0 0 0 0 1.62z" fill="#DBDBDB"/><path d="M17.404 23.006a5.523 5.523 0 0 0-1.495-1.823l-3.112 3.4-1.49-1.426a1.167 1.167 0 0 0-1.614 1.686l2.35 2.25a1.167 1.167 0 0 0 1.668-.055l3.693-4.032z" fill="#6EB805"/><path d="M12.432 20.518a.45.45 0 0 0 .655-.02l1.85-2.1a.45.45 0 1 0-.674-.595l-1.533 1.741-.562-.562a.45.45 0 0 0-.636.636l.9.9zM12.441 15.877a.45.45 0 0 0 .643-.026l1.85-2.05a.45.45 0 0 0-.668-.602l-1.537 1.713-.57-.539a.45.45 0 0 0-.618.654l.9.85z" fill="#6FB906"/><path d="M12.5 33a7.5 7.5 0 1 0 0-15 7.5 7.5 0 0 0 0 15zm0-2a5.5 5.5 0 1 0 0-11 5.5 5.5 0 0 0 0 11z" fill="#3B3B3B"/><path d="M12.992 20.022a5.5 5.5 0 0 0-5.97 5.97l5.97-5.97z" opacity=".15" fill="#FFF"/><path d="M12.5 31a5.489 5.489 0 0 1-4.254-2.014l7.679-7.8C17.148 22.195 18 23.79 18 25.5l-.001.113-5.4 5.386L12.5 31z" opacity=".4" fill="#FFF"/></g></svg>