<svg id="Layer_1" xmlns="http://www.w3.org/2000/svg" width="200" height="15" viewBox="0 0 200 15"><style>.st0{fill:#61bef2}.st1{opacity:.25;fill:#e5f8ff;enable-background:new}.st2{opacity:.5;fill:#1797eb}</style><g id="XMLID_1_"><path id="XMLID_7_" class="st0" d="M192.5 15H7.5C3.4 15 0 11.6 0 7.5S3.4 0 7.5 0h185c4.1 0 7.5 3.4 7.5 7.5s-3.4 7.5-7.5 7.5z"/><path id="XMLID_15_" class="st1" d="M200 7.5c0-4.1-3.4-7.5-7.5-7.5h-5.2c-1.2 0-1.2 1.7.6 2.6 1.5.7 2.6 2.4 2.1 4.8s-1.9 3.8-.8 6c.9 1.7 2.2 1.6 3 1.6h.3c4.1 0 7.5-3.4 7.5-7.5z"/><path id="XMLID_26_" class="st2" d="M196 7.4c-1.8 0-1.3 3.4-6.8 3.4H10.8c-5.4 0-5-3.4-6.8-3.4-.7 0-1 1.1-1 1.8C3 11.7 5.4 15 9 15h182c3.5 0 6-3.3 6-5.9 0-.7-.3-1.7-1-1.7z"/></g></svg>