<svg id="Layer_1" xmlns="http://www.w3.org/2000/svg" width="200" height="15" viewBox="0 0 200 15"><style>.st0{fill:none}.st1,.st2,.st3,.st4,.st5{opacity:.3;fill:#e6f9ff;enable-background:new}.st2,.st3,.st4,.st5{fill:#1797eb}.st3,.st4,.st5{opacity:.2;fill:#e6f9ff}.st4,.st5{opacity:.5;fill:#1797eb}.st5{fill:#e6f9ff}</style><g id="XMLID_20_"><path id="XMLID_87_" class="st0" d="M192.5 15H7.5C3.4 15 0 11.6 0 7.5S3.4 0 7.5 0h185c4.1 0 7.5 3.4 7.5 7.5s-3.4 7.5-7.5 7.5z"/><g id="XMLID_19_"><circle id="XMLID_1_" class="st1" cx="27.1" cy="7.5" r=".7"/><circle id="XMLID_2_" class="st2" cx="38.2" cy="3.3" r=".9"/><circle id="XMLID_3_" class="st1" cx="47.1" cy="12.5" r=".7"/><circle id="XMLID_4_" class="st3" cx="55.6" cy="7.5" r="1.8"/><circle id="XMLID_5_" class="st2" cx="68.2" cy="7.3" r=".9"/><circle id="XMLID_6_" class="st2" cx="77.1" cy="10.2" r="1.2"/><circle id="XMLID_7_" class="st1" cx="87.1" cy="4.5" r=".7"/><circle id="XMLID_8_" class="st3" cx="95.6" cy="9.5" r="1.8"/><circle id="XMLID_9_" class="st2" cx="103.2" cy="4.3" r=".9"/><circle id="XMLID_10_" class="st2" cx="112.1" cy="7.2" r="1.2"/><circle id="XMLID_11_" class="st1" cx="122.9" cy="7.7" r=".9"/><circle id="XMLID_12_" class="st2" cx="142.4" cy="4.9" r="1.3"/><circle id="XMLID_13_" class="st1" cx="154" cy="10.4" r="1.8"/><circle id="XMLID_14_" class="st4" cx="167.5" cy="6.8" r="1.8"/><circle id="XMLID_15_" class="st5" cx="174.6" cy="4.3" r=".7"/><circle id="XMLID_16_" class="st4" cx="179.2" cy="9.1" r="1.2"/><circle id="XMLID_17_" class="st1" cx="193.3" cy="3.4" r="1.1"/><circle id="XMLID_18_" class="st1" cx="195.8" cy="10.7" r="1.5"/></g></g></svg>