<svg id="Layer_1" xmlns="http://www.w3.org/2000/svg" viewBox="0 0 24 24"><style>.st0{fill:#e7e7e7}.st1{fill:#dbdbdb}.st2{fill:none}.st3{fill:#cecece}</style><g id="XMLID_502_"><circle id="XMLID_504_" class="st0" cx="12" cy="12" r="12"/><path id="XMLID_503_" class="st1" d="M.5 8.5h23C22 3.6 17.4 0 12 0S2 3.6.5 8.5z"/></g><g id="XMLID_549_"><circle id="XMLID_548_" class="st2" cx="12" cy="12" r="12"/><g id="XMLID_544_"><g id="XMLID_545_"><path id="XMLID_547_" class="st3" d="M18.7 8.5h-3.2c-.4 0-.8-.3-1-.7-.1-.4-.5-.7-1-.7L8.7 7l3 8.1 3.6-3.1c.3-.2.7-.1.8.2.1.3.5.4.8.2l2.5-2.1c.7-.6.3-1.8-.7-1.8z"/><path id="XMLID_546_" class="st3" d="M12 19c-.6.2-1.2-.1-1.4-.6l-4-10.9c-.2-.5.1-1.1.7-1.3.5-.2 1.1.1 1.3.6l4 10.9c.2.5-.1 1.1-.6 1.3z"/></g></g></g></svg>