<svg width="22" height="22" viewBox="0 0 22 22" xmlns="http://www.w3.org/2000/svg"><title>navIconDelete</title><g transform="translate(3.5 2.5)" fill="#888" fill-rule="evenodd"><path d="M12 4v10.247c0 .692-.56 1.253-1.25 1.253h-6.5A1.25 1.25 0 0 1 3 14.247V4h9zM2.25 2.5H1.5v11.747A2.75 2.75 0 0 0 4.25 17h6.5a2.751 2.751 0 0 0 2.75-2.753V2.5H2.25z"/><path d="M1 4h13a.75.75 0 1 0 0-1.5H1A.75.75 0 0 0 1 4z"/><path d="M5.17 3.085l.553-1.105c.121-.241.506-.48.776-.48h2.002c.266 0 .657.242.776.48l.552 1.105a.75.75 0 1 0 1.342-.67l-.553-1.106C10.246.564 9.336 0 8.501 0H6.499C5.66 0 4.756.56 4.382 1.31l-.553 1.105a.75.75 0 1 0 1.342.67z"/><rect x="5" y="6" width="1.5" height="7.5" rx=".75"/><rect x="8.5" y="6" width="1.5" height="7.5" rx=".75"/></g></svg>